<svg xmlns="http://www.w3.org/2000/svg" style="display:none;">
    <defs>
        <symbol id="home" viewBox="0 0 15 16">
            <path d="M0.294066 5.15928C0 5.7542 0 6.43102 0 7.78465V12.0122C0 13.892 0 14.832 0.627628 15.416C1.19714 15.9459 2.08162 15.995 3.75 15.9995V11.0153C3.75 9.91404 4.70939 9.02133 5.89286 9.02133H9.10714C10.2906 9.02133 11.25 9.91404 11.25 11.0153V15.9995C12.9184 15.995 13.8029 15.9459 14.3724 15.416C15 14.832 15 13.892 15 12.0122V7.78465C15 6.43102 15 5.7542 14.7059 5.15928C14.4119 4.56435 13.8596 4.12388 12.7551 3.24295L11.6837 2.38841C9.68725 0.796138 8.68904 0 7.5 0C6.31096 0 5.31275 0.796138 3.31634 2.38841L2.24491 3.24295C1.14039 4.12388 0.588131 4.56435 0.294066 5.15928Z"/>
            <path d="M9.10714 16V11.0153H5.89286V16H9.10714Z"/>
        </symbol>
        <symbol id="calendar" viewBox="0 0 16 15">
            <path d="M14.2555 0H12.7601V1.5C12.7601 1.8 12.5109 2 12.2617 2C12.0125 2 11.7632 1.8 11.7632 1.5V0H3.78816V1.5C3.78816 1.8 3.53894 2 3.28972 2C3.0405 2 2.79128 1.8 2.79128 1.5V0H1.29595C0.548286 0 0 0.65 0 1.5V3.3H15.9502V1.5C15.9502 0.65 15.053 0 14.2555 0ZM0 4.35V13.5C0 14.4 0.548287 15 1.34579 15H14.3053C15.1028 15 16 14.35 16 13.5V4.35H0ZM4.43614 12.75H3.23988C3.0405 12.75 2.84112 12.6 2.84112 12.35V11.1C2.84112 10.9 2.99065 10.7 3.23988 10.7H4.48598C4.68536 10.7 4.88474 10.85 4.88474 11.1V12.35C4.83489 12.6 4.68536 12.75 4.43614 12.75ZM4.43614 8.25H3.23988C3.0405 8.25 2.84112 8.1 2.84112 7.85V6.6C2.84112 6.4 2.99065 6.2 3.23988 6.2H4.48598C4.68536 6.2 4.88474 6.35 4.88474 6.6V7.85C4.83489 8.1 4.68536 8.25 4.43614 8.25ZM8.42368 12.75H7.17757C6.97819 12.75 6.77882 12.6 6.77882 12.35V11.1C6.77882 10.9 6.92835 10.7 7.17757 10.7H8.42368C8.62305 10.7 8.82243 10.85 8.82243 11.1V12.35C8.82243 12.6 8.6729 12.75 8.42368 12.75ZM8.42368 8.25H7.17757C6.97819 8.25 6.77882 8.1 6.77882 7.85V6.6C6.77882 6.4 6.92835 6.2 7.17757 6.2H8.42368C8.62305 6.2 8.82243 6.35 8.82243 6.6V7.85C8.82243 8.1 8.6729 8.25 8.42368 8.25ZM12.4112 12.75H11.1651C10.9657 12.75 10.7664 12.6 10.7664 12.35V11.1C10.7664 10.9 10.9159 10.7 11.1651 10.7H12.4112C12.6106 10.7 12.81 10.85 12.81 11.1V12.35C12.81 12.6 12.6604 12.75 12.4112 12.75ZM12.4112 8.25H11.1651C10.9657 8.25 10.7664 8.1 10.7664 7.85V6.6C10.7664 6.4 10.9159 6.2 11.1651 6.2H12.4112C12.6106 6.2 12.81 6.35 12.81 6.6V7.85C12.81 8.1 12.6604 8.25 12.4112 8.25Z"/>
        </symbol>
        <symbol id="calendarPlus" viewBox="0 0 16 16">
            <path d="M0 5.73758C0 4.657 0 4.11672 0.203282 3.70097C0.398704 3.30131 0.721807 2.9782 1.12148 2.78278C1.53722 2.5795 2.07751 2.5795 3.15808 2.5795H12.8419C13.9225 2.5795 14.4628 2.5795 14.8785 2.78278C15.2782 2.9782 15.6013 3.30131 15.7967 3.70097C16 4.11672 16 4.657 16 5.73758C16 6.00772 16 6.14279 15.9492 6.24673C15.9003 6.34665 15.8195 6.42742 15.7196 6.47628C15.6157 6.5271 15.4806 6.5271 15.2105 6.5271H0.78952C0.519377 6.5271 0.384305 6.5271 0.280369 6.47628C0.180452 6.42742 0.0996761 6.34665 0.0508205 6.24673C0 6.14279 0 6.00772 0 5.73758Z"/>
            <path fill-rule="evenodd" clip-rule="evenodd"
                  d="M0 12.0002C0 13.8858 0 14.8286 0.585786 15.4144C1.17157 16.0002 2.11438 16.0002 4 16.0002H12C13.8856 16.0002 14.8284 16.0002 15.4142 15.4144C16 14.8286 16 13.8858 16 12.0002V9.10501C16 8.63361 16 8.3979 15.8536 8.25146C15.7071 8.10501 15.4714 8.10501 15 8.10501H1C0.528596 8.10501 0.292893 8.10501 0.146447 8.25146C0 8.3979 0 8.63361 0 9.10501V12.0002ZM4.6001 12.0522C4.6001 11.4999 5.04781 11.0522 5.6001 11.0522H7V9.6842C7 9.13192 7.44772 8.6842 8 8.6842C8.55229 8.6842 9 9.13192 9 9.6842V11.0522H10.4001C10.9524 11.0522 11.4001 11.4999 11.4001 12.0522C11.4001 12.6045 10.9524 13.0522 10.4001 13.0522H9V14.4213C9 14.9736 8.55228 15.4213 8 15.4213C7.44771 15.4213 7 14.9736 7 14.4213V13.0522H5.6001C5.04781 13.0522 4.6001 12.6045 4.6001 12.0522Z"/>
            <path d="M4 1L4 3.36856" stroke="currentColor" stroke-width="2" stroke-linecap="round"/>
            <path d="M12 1L12 3.36856" stroke="currentColor" stroke-width="2" stroke-linecap="round"/>
        </symbol>
        <symbol id="list" viewBox="0 0 14 16">
            <path d="M9.49 2.98H4.516a.862.862 0 0 1-.605-.248.84.84 0 0 1-.25-.598V.846c0-.467.383-.846.855-.846h4.976c.472 0 .856.379.856.846v1.288a.837.837 0 0 1-.251.598.857.857 0 0 1-.605.248z"/>
            <path d="M11.94 1.491h-.726v.643c0 .452-.182.885-.505 1.204-.323.319-.761.499-1.218.5H4.515c-.457-.001-.895-.18-1.218-.5a1.694 1.694 0 0 1-.506-1.204v-.643h-.72A2.056 2.056 0 0 0 0 3.537v10.417C0 15.086.926 16 2.071 16h9.858A2.056 2.056 0 0 0 14 13.954V3.537a2.043 2.043 0 0 0-2.06-2.046zM6.103 9.967h-2.51a.524.524 0 0 1-.368-.15.511.511 0 0 1 0-.728.524.524 0 0 1 .369-.15h2.51c.137 0 .27.054.367.15a.511.511 0 0 1 0 .728.524.524 0 0 1-.368.15zM9.175 7.05H3.593a.524.524 0 0 1-.369-.151.511.511 0 0 1 0-.727.524.524 0 0 1 .369-.151h5.582c.138 0 .27.054.368.15a.511.511 0 0 1 0 .728.524.524 0 0 1-.368.15z"/>
        </symbol>
        <symbol id="folder" viewBox="0 0 16 16">
            <path d="M13.445 7.704a.692.692 0 0 0-.237-.423.702.702 0 0 0-.459-.166H7.107L6.082 5.912a1.162 1.162 0 0 0-.872-.413H1.544A.898.898 0 0 0 .67 6.546l.098.569H.702a.698.698 0 0 0-.675.498.683.683 0 0 0-.019.296l1.139 7.326a.902.902 0 0 0 .307.548c.166.14.376.217.594.217h11.816a.708.708 0 0 0 .674-.502.692.692 0 0 0 .021-.295l-1.114-7.499zm-2.81-5.467H6.223c-.304 0-.55.273-.55.575 0 .302.246.575.55.575h4.414c.305 0 .551-.273.551-.575 0-.302-.247-.575-.551-.575zm5.2 4.029a.679.679 0 0 0-.508-.24h-1.252l.285 2.62.68 4.577.953-6.423a.672.672 0 0 0-.157-.534z"/>
            <path d="M4.612 1.057h7.705v5.188h1.066V.672a.677.677 0 0 0-.203-.474A.688.688 0 0 0 12.7 0H4.18a.73.73 0 0 0-.726.737v4.016h1.158V1.057z"/>
            <path d="M10.636 4.35H6.222c-.265 0-.485.207-.539.462.382.095.724.304.98.6l.08.087h3.893c.305 0 .551-.273.551-.575 0-.302-.247-.574-.551-.574z"/>
        </symbol>
        <symbol id="chartCircle" viewBox="0 0 16 16">
            <path d="M7.0484 1.54191C6.82533 0.680925 6.71379 0.250432 6.32963 0.0712906C5.94547 -0.10785 5.60643 0.0666592 4.92835 0.415679C4.41803 0.678349 3.93209 0.991809 3.47768 1.35242C2.55159 2.08734 1.77454 3.0037 1.19089 4.0492C0.607233 5.09469 0.22841 6.24884 0.076046 7.44574C0.00128309 8.03305 -0.0182361 8.625 0.0169684 9.21341C0.0637459 9.99524 0.0871346 10.3862 0.429225 10.6407C0.771315 10.8952 1.18757 10.7798 2.02008 10.5491L7.17169 9.12152C7.98118 8.8972 8.38593 8.78504 8.57003 8.45527C8.75412 8.1255 8.64567 7.70691 8.42877 6.86972L7.0484 1.54191Z"/>
            <path d="M5.79261 2.02319C3.41639 3.21367 1.77778 5.73176 1.77778 8.64566C1.77778 8.82666 1.7841 9.00614 1.79653 9.18387L7.25589 7.671L5.79261 2.02319Z"/>
            <path d="M8.36875 1.31069L9.95709 7.44107C10.0015 7.6118 10.0642 7.8526 10.0917 8.07338C10.1264 8.35166 10.1345 8.7918 9.88415 9.24033C9.63375 9.68886 9.26111 9.90163 9.01075 10.0097C8.81212 10.0955 8.57914 10.1597 8.41396 10.2053L2.48556 11.8481C3.63671 14.3055 6.07146 16 8.88889 16C12.8162 16 16 12.7073 16 8.64566C16 4.58397 12.8162 1.29132 8.88889 1.29132C8.71396 1.29132 8.54051 1.29785 8.36875 1.31069Z"/>
        </symbol>
        <symbol id="dumbbell" viewBox="0 0 16 16">
            <path d="M8.08212 12.6411C8.58411 13.1438 8.58101 13.9524 8.08212 14.4513L6.95321 15.5802C6.45848 16.0762 5.6453 16.0824 5.14305 15.5802L0.419744 10.8569C-0.0791136 10.3577 -0.0791136 9.54559 0.419744 9.04673L1.54865 7.91782C2.04754 7.4189 2.85618 7.41583 3.35881 7.91782L8.08212 12.6411ZM0.610039 12.087C0.494556 11.9716 0.302565 11.9928 0.213417 12.1296C-0.140711 12.6732 -0.0314998 13.3284 0.374306 13.7342L2.26574 15.6257C2.66803 16.028 3.32278 16.1437 3.87015 15.7867C4.00704 15.6975 4.02851 15.5055 3.91296 15.39L0.610039 12.087ZM8.8584 5.39857C8.65841 5.1989 8.33427 5.1989 8.13427 5.39857L5.3984 8.13445C5.19841 8.33444 5.19841 8.65859 5.3984 8.85858L7.14136 10.6015C7.34068 10.8009 7.66482 10.8016 7.86549 10.6015L10.6014 7.86566C10.8014 7.66567 10.8014 7.34153 10.6014 7.14154L8.8584 5.39857ZM15.3903 3.9125C15.5059 4.02808 15.6979 4.00654 15.7872 3.86959C16.1438 3.32209 16.0267 2.66718 15.6255 2.26592L13.734 0.374482C13.3292 -0.0300434 12.6744 -0.141526 12.1302 0.212922C11.9933 0.30207 11.972 0.494093 12.0875 0.609608L15.3903 3.9125ZM10.8567 0.41992C10.3575 -0.0789372 9.54541 -0.0792571 9.04655 0.41992L7.91764 1.54883C7.41875 2.04769 7.41565 2.85632 7.91764 3.35899L12.641 8.08229C13.1441 8.58477 13.9528 8.58067 14.4511 8.08229L15.58 6.95338C16.0789 6.45453 16.0789 5.6424 15.58 5.14323L10.8567 0.41992Z"/>
        </symbol>
        <symbol id="settings" viewBox="0 0 16 17">
            <path d="M15.1226 6.96262L13.8692 6.80328C13.7671 6.48846 13.6402 6.18218 13.4899 5.88728L14.2639 4.89062C14.4152 4.69926 14.4905 4.45884 14.4755 4.2154C14.4605 3.97196 14.3562 3.74262 14.1826 3.57128L13.1325 2.52128C12.9611 2.34665 12.7313 2.24143 12.487 2.22581C12.2428 2.21018 12.0014 2.28525 11.8092 2.43662L10.8138 3.21062C10.5187 3.06019 10.2122 2.93335 9.89708 2.83128L9.73774 1.57995C9.70873 1.33753 9.59191 1.11413 9.40936 0.951983C9.22682 0.789837 8.99119 0.700177 8.74703 0.699951H7.25364C6.74895 0.699951 6.32293 1.07795 6.26293 1.57795L6.10359 2.83128C5.78838 2.93306 5.48184 3.05991 5.18688 3.21062L4.19084 2.43662C3.99936 2.28567 3.75899 2.21052 3.51563 2.22553C3.27226 2.24053 3.04294 2.34463 2.87145 2.51795L1.82141 3.56728C1.64659 3.73874 1.54125 3.96872 1.52562 4.21308C1.51 4.45744 1.58518 4.69896 1.73674 4.89128L2.51077 5.88728C2.36017 6.18205 2.23332 6.48835 2.13142 6.80328L0.880037 6.96262C0.378016 7.02262 0 7.44862 0 7.95328V9.44662C0 9.95128 0.378016 10.3773 0.878037 10.4373L2.13142 10.5966C2.23476 10.9146 2.3621 11.2213 2.51077 11.5126L1.73674 12.5093C1.5855 12.7006 1.51018 12.9411 1.52518 13.1845C1.54019 13.4279 1.64448 13.6573 1.81808 13.8286L2.86812 14.8786C3.03978 15.0529 3.26964 15.1578 3.51377 15.1733C3.75791 15.1888 3.99919 15.1138 4.19151 14.9626L5.18755 14.1886C5.47889 14.338 5.78557 14.4653 6.10359 14.568L6.26293 15.8186C6.32293 16.322 6.74895 16.7 7.25364 16.7H8.74703C9.25172 16.7 9.67774 16.322 9.73774 15.822L9.89708 14.5686C10.2119 14.4664 10.5182 14.3396 10.8131 14.1893L11.8098 14.9633C12.2132 15.2766 12.7825 15.24 13.1292 14.882L14.1793 13.832C14.3539 13.6605 14.4591 13.4307 14.4747 13.1865C14.4904 12.9423 14.4153 12.7009 14.2639 12.5086L13.4899 11.5126C13.6392 11.2213 13.7666 10.9146 13.8692 10.5966L15.12 10.4373C15.3624 10.4083 15.5858 10.2915 15.748 10.1089C15.9101 9.92638 15.9998 9.69077 16 9.44662V7.95328C16.0001 7.70946 15.911 7.47402 15.7493 7.29149C15.5876 7.10895 15.3647 6.99196 15.1226 6.96262ZM8.00033 12.0333C6.16226 12.0333 4.66686 10.538 4.66686 8.69995C4.66686 6.86195 6.16226 5.36662 8.00033 5.36662C9.83841 5.36662 11.3338 6.86195 11.3338 8.69995C11.3338 10.538 9.83841 12.0333 8.00033 12.0333Z"/>
        </symbol>
        <symbol id="info" viewBox="0 0 16 17">
            <path d="M16 8.7a8 8 0 1 0-16 0 8 8 0 0 0 16 0z"/>
            <path d="M10.166 12.295a.161.161 0 0 0-.202-.055c-.793.375-1.693.772-1.87.807a.156.156 0 0 1-.02-.024.211.211 0 0 1-.035-.13c0-.448.338-1.812 1.005-4.054.563-1.883.628-2.273.628-2.403 0-.2-.076-.368-.221-.488-.138-.113-.33-.171-.572-.171-.401 0-.867.153-1.423.466-.54.305-1.14.82-1.787 1.532a.161.161 0 0 0 .18.257c.228-.092 1.368-.56 1.534-.664.136-.085.254-.128.35-.128h.01a.17.17 0 0 1 .002.03c0 .098-.02.215-.06.345-.972 3.149-1.444 5.08-1.444 5.901 0 .29.08.524.24.694.161.174.38.263.649.263.287 0 .636-.12 1.067-.367.417-.238 1.054-.762 1.946-1.603a.161.161 0 0 0 .023-.208zm-.031-9.122a.812.812 0 0 0-.604-.245c-.301 0-.564.119-.78.353-.212.231-.32.515-.32.842 0 .26.08.474.236.639.159.166.36.25.596.25.289 0 .55-.125.775-.373.222-.243.334-.53.334-.85a.849.849 0 0 0-.237-.616z"
                  fill="var(--sidebar-bg-color)"/>
        </symbol>
        <symbol id="infoBubble" viewBox="0 0 16 17">
            <path xmlns="http://www.w3.org/2000/svg"
                  d="M7.99311 0.700009C6.61039 0.697976 5.25086 1.05553 4.04774 1.73764C2.84462 2.41974 1.83919 3.403 1.12997 4.59106C0.42075 5.77911 0.0320744 7.13121 0.00202862 8.51486C-0.0280171 9.8985 0.301598 11.2662 0.958574 12.484L0.037628 15.5551C-0.00226717 15.6879 -0.0105772 15.8282 0.0133621 15.9647C0.0373015 16.1013 0.0928262 16.2304 0.175499 16.3416C0.258171 16.4529 0.365698 16.5432 0.489486 16.6054C0.613274 16.6677 0.749891 16.7 0.888415 16.7C0.975017 16.6999 1.06115 16.6873 1.14418 16.6627L4.21252 15.7409C5.28348 16.3191 6.4722 16.645 7.68807 16.6936C8.90394 16.7422 10.1148 16.5124 11.2285 16.0215C12.3421 15.5307 13.3291 14.7918 14.1141 13.8612C14.8992 12.9306 15.4616 11.8329 15.7585 10.6518C16.0553 9.47069 16.0789 8.2373 15.8272 7.04569C15.5756 5.85408 15.0555 4.7357 14.3065 3.77582C13.5575 2.81594 12.5994 2.0399 11.5053 1.50686C10.4112 0.973824 9.20995 0.69786 7.99311 0.700009ZM7.99311 4.25556C8.16876 4.25556 8.34046 4.30769 8.48651 4.40537C8.63255 4.50304 8.74638 4.64186 8.8136 4.80429C8.88081 4.96671 8.8984 5.14544 8.86413 5.31786C8.82987 5.49029 8.74529 5.64868 8.62108 5.77299C8.49688 5.8973 8.33864 5.98196 8.16637 6.01626C7.9941 6.05056 7.81553 6.03295 7.65326 5.96568C7.49098 5.8984 7.35228 5.78447 7.25469 5.63829C7.15711 5.49211 7.10502 5.32026 7.10502 5.14445C7.10502 4.9087 7.19859 4.68261 7.36514 4.51591C7.53169 4.34921 7.75758 4.25556 7.99311 4.25556ZM8.8812 13.1444H7.99311C7.75758 13.1444 7.53169 13.0508 7.36514 12.8841C7.19859 12.7174 7.10502 12.4913 7.10502 12.2556V8.7C6.86949 8.7 6.6436 8.60635 6.47705 8.43965C6.3105 8.27295 6.21694 8.04686 6.21694 7.81112C6.21694 7.57537 6.3105 7.34927 6.47705 7.18258C6.6436 7.01588 6.86949 6.92223 7.10502 6.92223H7.99311C8.22865 6.92223 8.45453 7.01588 8.62108 7.18258C8.78763 7.34927 8.8812 7.57537 8.8812 7.81112V11.3667C9.11673 11.3667 9.34262 11.4603 9.50917 11.627C9.67572 11.7937 9.76929 12.0198 9.76929 12.2556C9.76929 12.4913 9.67572 12.7174 9.50917 12.8841C9.34262 13.0508 9.11673 13.1444 8.8812 13.1444Z"/>
        </symbol>
        <symbol id="moon" viewBox="0 0 16 17">
            <path xmlns="http://www.w3.org/2000/svg"
                  d="M15.6107 9.81727C15.447 9.77618 15.2833 9.81727 15.1401 9.92C14.6081 10.372 13.9944 10.7418 13.3192 10.9884C12.6849 11.2349 11.9893 11.3582 11.2528 11.3582C9.59554 11.3582 8.08154 10.6802 6.99718 9.59127C5.91282 8.50237 5.23765 6.98202 5.23765 5.31785C5.23765 4.61931 5.36041 3.94131 5.56501 3.32495C5.79006 2.6675 6.11742 2.07169 6.54707 1.55806C6.7312 1.33206 6.69028 1.00333 6.46523 0.818424C6.32201 0.715697 6.15833 0.674607 5.99466 0.715697C4.25559 1.18824 2.74158 2.23605 1.65723 3.63313C0.613788 5.00967 0 6.71493 0 8.56401C0 10.8034 0.900222 12.8374 2.37331 14.3167C3.8464 15.796 5.85144 16.7 8.10199 16.7C9.98428 16.7 11.7233 16.0425 13.1146 14.9536C14.5263 13.8442 15.5493 12.2622 15.9789 10.4542C16.0608 10.1665 15.8971 9.87891 15.6107 9.81727Z"/>
        </symbol>
        <symbol id="arrowDown" viewBox="0 0 12 8">
            <path xmlns="http://www.w3.org/2000/svg" d="M1 1.5L6 6.5L11 1.5" stroke="currentColor" stroke-width="1.5"
                  stroke-linecap="round" stroke-linejoin="round"/>
        </symbol>
        <symbol id="toggleCircle" viewBox="0 0 24 24">
            <g style="filter: drop-shadow(0px 0px 4px rgba(0, 0, 0, 0.15))">
                <circle cx="12" cy="12.7" r="11"/>
            </g>
        </symbol>
        <symbol id="menu" viewBox="0 0 32 22">
            <rect width="32" height="4" rx="2"/>
            <rect x="8" y="9" width="24" height="4" rx="2"/>
            <rect y="18" width="32" height="4" rx="2"/>
        </symbol>
        <symbol id="menu-icon" viewBox="0 0 22 16">
            <path d="M21.001 0H6.0063C5.17817 0 4.50682 0.691577 4.50682 1.54467C4.50682 2.39776 5.17817 3.08934 6.0063 3.08934H21.001C21.8292 3.08934 22.5005 2.39776 22.5005 1.54467C22.5005 0.691577 21.8292 0 21.001 0ZM3.00735 1.54467C3.00565 1.13566 2.84658 0.74404 2.565 0.455677C1.98016 -0.14322 1.03559 -0.14322 0.450744 0.455677C0.169135 0.744016 0.0100528 1.13565 0.00839933 1.54467C-0.00279978 1.64474 -0.00279978 1.74581 0.00839933 1.84588C0.0253576 1.94653 0.0530144 2.04495 0.0908705 2.13936C0.131129 2.23085 0.17878 2.31869 0.233321 2.40196C0.287156 2.48855 0.350006 2.56884 0.420755 2.64138C0.488978 2.71139 0.564396 2.77354 0.645676 2.82674C0.724646 2.88598 0.810227 2.93525 0.900587 2.97349C0.99998 3.0266 1.10591 3.06557 1.21548 3.08934C1.31264 3.10053 1.41071 3.10053 1.50787 3.08934C1.90385 3.08967 2.28387 2.92863 2.565 2.64138C2.63575 2.56884 2.6986 2.48855 2.75244 2.40196C2.80698 2.31869 2.85463 2.23085 2.89489 2.13936C2.94274 2.04609 2.98045 1.94767 3.00735 1.84588C3.01855 1.74581 3.01855 1.64474 3.00735 1.54467ZM3.00735 8.49567C3.0185 8.3956 3.0185 8.29454 3.00735 8.19446C2.98144 8.0948 2.94367 7.99881 2.89489 7.9087C2.85626 7.81393 2.80854 7.72338 2.75244 7.63838C2.70046 7.55274 2.6374 7.47479 2.565 7.40668C1.98016 6.80779 1.03559 6.80779 0.450744 7.40668C0.169135 7.69502 0.0100528 8.08666 0.00839933 8.49567C0.0113118 8.69921 0.0493934 8.90059 0.12086 9.09037C0.158443 9.18173 0.203594 9.26959 0.255813 9.35297C0.312845 9.43693 0.378172 9.51458 0.450744 9.58466C0.516988 9.65911 0.592638 9.72405 0.675666 9.77775C0.754607 9.83703 0.840194 9.8863 0.930577 9.92449C1.02201 9.96413 1.11763 9.99264 1.21548 10.0094C1.3114 10.0316 1.40956 10.042 1.50787 10.0403C1.60501 10.0519 1.70313 10.0519 1.80027 10.0403C1.89569 10.0235 1.98882 9.99497 2.07767 9.95538C2.17051 9.91743 2.25861 9.86816 2.34008 9.80864C2.42311 9.75495 2.49876 9.69 2.565 9.61556C2.63727 9.54732 2.70031 9.46939 2.75244 9.38386C2.81007 9.3026 2.85791 9.21442 2.89489 9.12126C2.94611 9.01872 2.98392 8.90965 3.00735 8.79688C3.01888 8.69683 3.01888 8.59573 3.00735 8.49567ZM3.00735 15.4467C3.01845 15.3466 3.01845 15.2455 3.00735 15.1455C2.98143 15.0433 2.94368 14.9448 2.89489 14.852C2.85463 14.7605 2.80698 14.6727 2.75244 14.5894C2.70031 14.5039 2.63727 14.4259 2.565 14.3577C1.98016 13.7588 1.03559 13.7588 0.450744 14.3577C0.378477 14.4259 0.315436 14.5039 0.26331 14.5894C0.208769 14.6727 0.161118 14.7605 0.12086 14.852C0.0819674 14.946 0.0542754 15.0446 0.0383888 15.1455C0.0172723 15.2444 0.00721036 15.3454 0.00839933 15.4467C0.0100938 15.8557 0.16917 16.2473 0.450744 16.5357C0.516988 16.6101 0.592638 16.6751 0.675666 16.7288C0.754607 16.788 0.840194 16.8373 0.930577 16.8755C1.02201 16.9151 1.11763 16.9436 1.21548 16.9605C1.3114 16.9826 1.40956 16.993 1.50787 16.9913C1.60501 17.0029 1.70313 17.0029 1.80027 16.9913C1.89569 16.9745 1.98882 16.946 2.07767 16.9064C2.17051 16.8684 2.25861 16.8192 2.34008 16.7596C2.42311 16.706 2.49876 16.641 2.565 16.5666C2.63727 16.4983 2.70031 16.4204 2.75244 16.3349C2.81012 16.2536 2.85796 16.1654 2.89489 16.0723C2.94606 15.9697 2.98387 15.8606 3.00735 15.7479C3.01888 15.6478 3.01888 15.5467 3.00735 15.4467ZM22.5005 6.95101H6.0063C5.17817 6.95101 4.50682 7.64258 4.50682 8.49567C4.50682 9.34877 5.17817 10.0403 6.0063 10.0403H22.5005C23.3287 10.0403 24 9.34877 24 8.49567C24 7.64258 23.3287 6.95101 22.5005 6.95101ZM15.7529 13.902H6.0063C5.17817 13.902 4.50682 14.5936 4.50682 15.4467C4.50682 16.2998 5.17817 16.9913 6.0063 16.9913H15.7529C16.581 16.9913 17.2524 16.2998 17.2524 15.4467C17.2524 14.5936 16.581 13.902 15.7529 13.902Z"/>
        </symbol>
        <symbol id="arrowLeft" viewBox="0 0 7 13">
            <path d="M6 1.69995L1 6.69995L6 11.7" stroke="currentColor" stroke-width="2" stroke-linecap="round"
                  stroke-linejoin="round"/>
        </symbol>
        <symbol id="arrowLineLeft" viewBox="0 0 14 14">
            <path d="M7.70538 12.5029C8.04947 12.842 8.05335 13.3957 7.71405 13.7395C7.37474 14.0834 6.82073 14.0873 6.47664 13.7482L0.260629 7.62263C0.0938768 7.4583 0 7.23404 0 7L2.86102e-06 6.99773L0 6.99543C0 6.72365 0.12399 6.48081 0.318522 6.32032L6.47664 0.251801C6.82073 -0.087286 7.37474 -0.0834093 7.71405 0.26046C8.05335 0.604328 8.04947 1.15797 7.70538 1.49706L3.01375 6.12043L13.1244 6.12043C13.608 6.12043 14 6.51218 14 6.99543C14 7.47868 13.608 7.87043 13.1244 7.87043L3.00447 7.87043L7.70538 12.5029Z"/>
        </symbol>
        <symbol id="hello" viewBox="0 0 23 23">
            <path d="M18.6817 0.699951H3.31833C1.485 0.699951 0 2.19411 0 4.03875V15.6507C0 17.4862 1.485 18.9803 3.30917 18.9803H4.76667V21.4152C4.76505 21.667 4.83748 21.9136 4.97482 22.1241C5.11217 22.3346 5.3083 22.4994 5.53855 22.598C5.76881 22.6966 6.02289 22.7245 6.26885 22.6781C6.5148 22.6318 6.74164 22.5133 6.92083 22.3376L10.3767 18.9803H18.6908C20.515 18.9803 22 17.4862 22 15.6507V4.03875C22 2.19411 20.5058 0.699951 18.6817 0.699951ZM15.6017 5.39086C16.0481 4.92048 16.8447 5.0865 17.0958 5.68601C17.2187 5.98392 17.1728 6.42479 16.8942 6.69134C16.6439 7.004 15.994 7.08701 15.6017 6.69134C15.2304 6.3178 15.2643 5.71183 15.6017 5.39086ZM12.6656 13.8873C12.6656 14.1319 12.569 14.3665 12.3971 14.5394C12.2252 14.7124 11.992 14.8096 11.7489 14.8096C11.5058 14.8096 11.2726 14.7124 11.1007 14.5394C10.9288 14.3665 10.8322 14.1319 10.8322 13.8873V10.5439H6.66142V13.8873C6.66142 14.1319 6.56484 14.3665 6.39293 14.5394C6.22102 14.7124 5.98786 14.8096 5.74475 14.8096C5.50163 14.8096 5.26848 14.7124 5.09657 14.5394C4.92466 14.3665 4.82808 14.1319 4.82808 13.8873V6.03833C4.82808 5.79372 4.92466 5.55912 5.09657 5.38616C5.26848 5.21319 5.50163 5.11601 5.74475 5.11601C5.98786 5.11601 6.22102 5.21319 6.39293 5.38616C6.56484 5.55912 6.66142 5.79372 6.66142 6.03833V8.69922H10.8322V6.03926C10.8322 5.79464 10.9288 5.56005 11.1007 5.38708C11.2726 5.21411 11.5058 5.11694 11.7489 5.11694C11.992 5.11694 12.2252 5.21411 12.3971 5.38708C12.569 5.56005 12.6656 5.79464 12.6656 6.03926V13.8873ZM17.1664 13.8873C17.1664 14.1319 17.0698 14.3665 16.8979 14.5394C16.726 14.7124 16.4929 14.8096 16.2498 14.8096C16.0066 14.8096 15.7735 14.7124 15.6016 14.5394C15.4297 14.3665 15.3331 14.1319 15.3331 13.8873V9.56159C15.3331 9.31698 15.4297 9.08238 15.6016 8.90941C15.7735 8.73645 16.0066 8.63927 16.2498 8.63927C16.4929 8.63927 16.726 8.73645 16.8979 8.90941C17.0698 9.08238 17.1664 9.31698 17.1664 9.56159V13.8873Z"/>
        </symbol>
        <symbol id="notify" viewBox="0 0 20 19">
            <path fill-rule="evenodd" clip-rule="evenodd"
                  d="M14.1657 9.08135C13.0585 8.97509 11.8947 9.15347 10.8012 9.59682C9.85521 9.9802 8.98569 10.5481 8.2378 11.2709L6.81093 9.75333C6.7728 9.7129 6.72472 9.68458 6.67216 9.67157C6.61959 9.65856 6.56463 9.66138 6.5135 9.67972C6.46237 9.69806 6.41712 9.73118 6.38286 9.77533C6.34861 9.81948 6.32673 9.87289 6.3197 9.92952L5.5731 16.005C5.56769 16.0482 5.57107 16.092 5.58301 16.1337C5.59494 16.1753 5.61515 16.2138 5.64229 16.2465C5.66942 16.2792 5.70286 16.3054 5.74034 16.3233C5.77783 16.3412 5.8185 16.3505 5.85963 16.3504C5.87135 16.3504 5.88499 16.3495 5.89667 16.3482L11.6394 15.5578C11.6928 15.5502 11.7432 15.5269 11.7849 15.4907C11.8266 15.4545 11.8578 15.4067 11.8753 15.3527C11.8927 15.2987 11.8955 15.2406 11.8835 15.185C11.8714 15.1294 11.8449 15.0784 11.807 15.0379L10.1286 13.2619C11.1306 11.5585 12.616 10.2583 14.2339 9.67596C14.2965 9.65308 14.3498 9.6082 14.3849 9.54879C14.42 9.48938 14.4348 9.41904 14.4268 9.34949C14.4188 9.27994 14.3886 9.21539 14.341 9.1666C14.2935 9.1178 14.2316 9.08771 14.1657 9.08135ZM9.51462 13.154C9.48219 13.2124 9.469 13.2806 9.47712 13.3479C9.48523 13.4151 9.5142 13.4776 9.55947 13.5256L10.9825 15.0309L6.19512 15.6898L6.81675 10.6275L8.02724 11.9149C8.08137 11.9725 8.1549 12.005 8.23166 12.0053C8.30843 12.0055 8.38214 11.9735 8.4366 11.9163C9.59646 10.6985 11.1715 9.912 12.7602 9.71337C11.4678 10.4943 10.3255 11.6959 9.51462 13.154ZM16.1345 1.12694C16.134 1.07106 16.1439 1.01564 16.1638 0.963857C16.1836 0.912078 16.213 0.864974 16.2501 0.82527C16.2873 0.785565 16.3315 0.754047 16.3803 0.732536C16.429 0.711026 16.4813 0.699951 16.5341 0.699951C16.5869 0.699951 16.6392 0.711026 16.6879 0.732536C16.7367 0.754047 16.7809 0.785565 16.8181 0.82527C16.8552 0.864974 16.8846 0.912078 16.9044 0.963857C16.9243 1.01564 16.9342 1.07106 16.9337 1.12694V2.94727C16.9342 3.00315 16.9243 3.05858 16.9044 3.11035C16.8846 3.16213 16.8552 3.20924 16.8181 3.24894C16.7809 3.28865 16.7367 3.32017 16.6879 3.34168C16.6392 3.36319 16.5869 3.37426 16.5341 3.37426C16.4813 3.37426 16.429 3.36319 16.3803 3.34168C16.3315 3.32017 16.2873 3.28865 16.2501 3.24894C16.213 3.20924 16.1836 3.16213 16.1638 3.11035C16.1439 3.05858 16.134 3.00315 16.1345 2.94727V1.12694ZM3.06629 1.12694C3.06577 1.07106 3.07572 1.01564 3.09557 0.963857C3.11541 0.912078 3.14477 0.864974 3.18192 0.82527C3.21908 0.785565 3.26331 0.754047 3.31206 0.732536C3.3608 0.711026 3.41309 0.699951 3.4659 0.699951C3.51871 0.699951 3.571 0.711026 3.61974 0.732536C3.66848 0.754047 3.71271 0.785565 3.74987 0.82527C3.78703 0.864974 3.81638 0.912078 3.83623 0.963857C3.85608 1.01564 3.86603 1.07106 3.86551 1.12694V2.94727C3.86603 3.00315 3.85608 3.05858 3.83623 3.11035C3.81638 3.16213 3.78703 3.20924 3.74987 3.24894C3.71271 3.28865 3.66848 3.32017 3.61974 3.34168C3.571 3.36319 3.51871 3.37426 3.4659 3.37426C3.41309 3.37426 3.3608 3.36319 3.31206 3.34168C3.26331 3.32017 3.21908 3.28865 3.18192 3.24894C3.14477 3.20924 3.11541 3.16213 3.09557 3.11035C3.07572 3.05858 3.06577 3.00315 3.06629 2.94727V1.12694ZM18.3119 18.7H1.68813C1.24051 18.6996 0.811334 18.5112 0.494826 18.1764C0.178319 17.8415 0.000351731 17.3874 0 16.9138V6.70157H20V16.9138C19.9996 17.3874 19.8217 17.8414 19.5052 18.1763C19.1887 18.5112 18.7595 18.6995 18.3119 18.7ZM20 6.08951V4.12911C19.9997 3.65552 19.8218 3.20141 19.5053 2.86653C19.1887 2.53164 18.7595 2.34336 18.3119 2.34303H17.5127V2.94727C17.5127 3.08323 17.4874 3.21786 17.4382 3.34347C17.389 3.46908 17.3169 3.58322 17.2261 3.67935C17.1352 3.77549 17.0273 3.85175 16.9086 3.90378C16.7899 3.95581 16.6626 3.98259 16.5341 3.98259C16.4056 3.98259 16.2784 3.95581 16.1596 3.90378C16.0409 3.85175 15.933 3.77549 15.8422 3.67935C15.7513 3.58322 15.6792 3.46908 15.63 3.34347C15.5809 3.21786 15.5556 3.08323 15.5556 2.94727V2.34303H4.44444V2.94727C4.44444 3.22186 4.34135 3.48519 4.15783 3.67935C3.97431 3.87351 3.72541 3.98259 3.46588 3.98259C3.20635 3.98259 2.95745 3.87351 2.77393 3.67935C2.59041 3.48519 2.48731 3.22186 2.48731 2.94727V2.34303H1.68813C1.2405 2.34336 0.811292 2.53164 0.494772 2.86653C0.178252 3.20141 0.00030008 3.65551 0 4.12911V6.08951H20Z"/>
        </symbol>
        <symbol id="knob" viewBox="0 0 14 14">
            <path d="M4.87305 10.294L3.70641 9.12736C3.67694 9.09717 3.64116 9.07387 3.60162 9.05915C3.56208 9.04442 3.51978 9.03863 3.47774 9.04219C3.43595 9.0452 3.3953 9.05718 3.35856 9.07731C3.32182 9.09744 3.28985 9.12526 3.26482 9.15886L0.0583576 13.5339C-0.0382993 13.6627 -0.0121868 13.8455 0.11668 13.9422C0.167167 13.98 0.22857 14.0005 0.291674 14.0005C0.354778 14.0005 0.416181 13.98 0.466668 13.9422L4.84152 10.7339C4.97145 10.6387 4.99964 10.4562 4.90446 10.3262C4.89564 10.3142 4.88591 10.3028 4.87537 10.2923L4.87305 10.294Z"
                  fill="currentColor"/>
            <path d="M8.66453 8.25241L5.74798 5.33577C5.25731 4.95375 4.64598 4.76024 4.02486 4.79034C3.62243 4.77626 3.22126 4.8431 2.84513 4.98688C2.46899 5.13066 2.12554 5.34848 1.83511 5.62742C1.36145 6.10109 1.41045 6.83316 1.98093 7.80383C2.51969 8.64863 3.15598 9.42709 3.87669 10.1232C5.0369 11.2828 6.5016 12.488 7.56907 12.488C7.71791 12.4917 7.86596 12.465 8.00409 12.4094C8.14223 12.3539 8.26753 12.2706 8.37229 12.1648C9.58675 10.9509 9.28401 8.87251 8.66453 8.25241Z"
                  fill="#C83800"/>
            <path d="M10.9972 5.91909L8.08062 3.00242C7.96674 2.88856 7.78212 2.88856 7.66821 3.00242L5.33497 5.33574C4.95348 5.71723 4.98498 6.56073 6.20994 7.7898C7.00966 8.58955 7.64721 8.88062 8.09987 8.88062C8.20356 8.88429 8.30692 8.86708 8.40382 8.83C8.50072 8.79293 8.58917 8.73674 8.66393 8.6648L10.9972 6.33148C11.1111 6.2176 11.1111 6.03297 10.9972 5.91909Z"
                  fill="#E74400"/>
            <path d="M13.9777 5.13907C13.9556 5.08573 13.9182 5.04014 13.8703 5.00805C13.8223 4.97597 13.7659 4.95883 13.7082 4.95882C13.0759 4.95882 11.6876 4.27515 10.7064 3.294C9.72533 2.31285 9.04168 0.925081 9.04168 0.292184C9.04178 0.234422 9.02473 0.177931 8.99268 0.129872C8.96064 0.0818125 8.91505 0.0443492 8.8617 0.022231C8.80834 0.000112917 8.74961 -0.00566404 8.69297 0.0056325C8.63633 0.016929 8.58431 0.0447904 8.54352 0.0856846C7.35238 1.27743 6.98025 3.30975 8.83518 5.16475C9.18447 5.55291 9.60815 5.86699 10.0811 6.08833C10.554 6.30968 11.0666 6.43379 11.5884 6.45332C12.0226 6.44834 12.4515 6.35772 12.8506 6.18664C13.2497 6.01557 13.6111 5.76741 13.9141 5.45639C13.9548 5.41569 13.9826 5.36383 13.9939 5.30736C14.0052 5.25089 13.9996 5.19233 13.9777 5.13907Z"
                  fill="#C83800"/>
            <path d="M12.165 1.8356C10.9295 0.600676 9.8125 0.000427246 8.75028 0.000427246C8.58921 0.000427246 8.45862 0.131021 8.45862 0.292102C8.45862 1.16303 9.28227 2.69485 10.2937 3.70692C11.3052 4.71899 12.8381 5.54209 13.7084 5.54209C13.8695 5.54209 14.0001 5.4115 14.0001 5.25041C14.0001 4.18759 13.3999 3.07049 12.165 1.8356Z"
                  fill="#E74400"/>
        </symbol>
        <symbol id="semiEllipse" viewBox="0 0 16 32">
            <path d="M0 1.02675C0 0.459694 0.460169 -0.00343157 1.02606 0.0329331C2.77621 0.145399 4.49838 0.545013 6.12294 1.21793C8.06415 2.022 9.82797 3.20055 11.3137 4.68629C12.7994 6.17203 13.978 7.93586 14.7821 9.87707C15.5861 11.8183 16 13.8989 16 16C16 18.1012 15.5861 20.1817 14.7821 22.1229C13.978 24.0641 12.7994 25.828 11.3137 27.3137C9.82797 28.7994 8.06414 29.978 6.12293 30.7821C4.49837 31.455 2.77621 31.8546 1.02606 31.9671C0.460163 32.0034 -5.72205e-06 31.5403 -4.76837e-06 30.9732C-4.76837e-06 30.4062 0.460304 29.9504 1.02583 29.9087C2.5061 29.7995 3.96173 29.4546 5.33709 28.8849C7.02915 28.184 8.5666 27.1567 9.86166 25.8617C11.1567 24.5666 12.184 23.0292 12.8849 21.3371C13.5858 19.645 13.9465 17.8315 13.9465 16C13.9465 14.1685 13.5858 12.355 12.8849 10.6629C12.184 8.97084 11.1567 7.43339 9.86166 6.13834C8.56661 4.84329 7.02916 3.816 5.33709 3.11512C3.96173 2.54543 2.50611 2.20046 1.02584 2.09129C0.46031 2.04958 0 1.59382 0 1.02675Z"/>
        </symbol>
        <symbol id="chartPie" viewBox="0 0 18 17">
            <path d="M4.73091 10.6207V10.5988C4.73087 8.75977 5.4178 7.02579 6.66976 5.68799H0V13.4877C0 13.7111 0.180669 13.8921 0.403527 13.8921H5.52147C5.04985 12.9337 4.78146 11.8398 4.73182 10.6427L4.73091 10.6207ZM11.8981 3.40846H11.9123C12.3782 3.40846 12.8337 3.45395 13.2752 3.53975V1.10438C13.2752 0.881024 13.0945 0.699951 12.8717 0.699951H0.403527C0.180669 0.699951 0 0.881024 0 1.10438V4.63091H7.90509C9.07822 3.836 10.4569 3.40846 11.8981 3.40846ZM3.18096 2.67945C3.18096 2.97134 2.94485 3.20798 2.65361 3.20798C2.36238 3.20798 2.12627 2.97134 2.12627 2.67945V2.64802C2.12627 2.35614 2.36238 2.1195 2.65361 2.1195C2.94485 2.1195 3.18096 2.35614 3.18096 2.64802V2.67945ZM5.29035 2.67945C5.29035 2.97134 5.05424 3.20798 4.76301 3.20798C4.47177 3.20798 4.23566 2.97134 4.23566 2.67945V2.64802C4.23566 2.35614 4.47177 2.1195 4.76301 2.1195C5.05424 2.1195 5.29035 2.35614 5.29035 2.64802V2.67945ZM7.39975 2.67945C7.39975 2.97134 7.16363 3.20798 6.8724 3.20798C6.58116 3.20798 6.34505 2.97134 6.34505 2.67945V2.64802C6.34505 2.35614 6.58116 2.1195 6.8724 2.1195C7.16363 2.1195 7.39975 2.35614 7.39975 2.64802V2.67945ZM8.56445 5.46316L11.8871 9.72239L15.2219 5.44765C14.263 4.82494 13.1226 4.4641 11.9052 4.46551C10.6773 4.4641 9.52812 4.831 8.56445 5.46316ZM18 10.052C17.8618 8.48998 17.1376 7.09943 16.0546 6.09629L12.9688 10.052H18Z"
                  fill="#C83800"/>
            <path d="M11.8875 11.1091L11.8872 11.109H11.887C11.8069 11.1091 11.7279 11.0909 11.6559 11.0557C11.5839 11.0205 11.5209 10.9693 11.4716 10.9061L7.73454 6.11557C6.53862 7.23361 5.78557 8.82631 5.7856 10.5987C6.11586 18.5662 17.205 18.7239 17.9872 11.109H11.8879L11.8875 11.1091Z"
                  fill="#C83800"/>
        </symbol>
        <symbol id="chartPieSingle" viewBox="0 0 26 26">
            <path d="M11.4536 2.40924C11.0912 1.06395 10.9099 0.391299 10.2857 0.111392C9.66139 -0.168516 9.11045 0.104155 8.00857 0.649498C7.1793 1.05992 6.38965 1.5497 5.65122 2.11316C4.14633 3.26147 2.88362 4.69329 1.93519 6.32687C0.986753 7.96046 0.371166 9.76381 0.123575 11.634C0.00208502 12.5516 -0.0296337 13.4766 0.0275736 14.3959C0.103587 15.6176 0.141594 16.2284 0.69749 16.626C1.25339 17.0237 1.9298 16.8434 3.28264 16.483L11.654 14.2524C12.9694 13.9019 13.6271 13.7266 13.9263 13.2114C14.2254 12.6961 14.0492 12.042 13.6967 10.7339L11.4536 2.40924Z"/>
            <path d="M9.41299 3.16124C5.55163 5.02136 2.88889 8.95588 2.88889 13.5088C2.88889 13.7917 2.89916 14.0721 2.91936 14.3498L11.7908 11.9859L9.41299 3.16124Z"/>
            <path d="M13.5992 2.04796L16.1803 11.6267C16.2525 11.8934 16.3543 12.2697 16.399 12.6147C16.4554 13.0495 16.4686 13.7372 16.0617 14.438C15.6548 15.1388 15.0493 15.4713 14.6425 15.6402C14.3197 15.7742 13.9411 15.8746 13.6727 15.9458L4.03904 18.5126C5.90966 22.3523 9.86612 25 14.4444 25C20.8264 25 26 19.8552 26 13.5088C26 7.16245 20.8264 2.01769 14.4444 2.01769C14.1602 2.01769 13.8783 2.02789 13.5992 2.04796Z"/>
        </symbol>
        <symbol id="dumbbell" viewBox="0 0 26 26">
            <path d="M13.1332 20.5415C13.949 21.3583 13.9439 22.6723 13.1332 23.483L11.2988 25.3174C10.4949 26.1234 9.17347 26.1336 8.35733 25.3174L0.682073 17.6422C-0.128558 16.831 -0.128558 15.5113 0.682073 14.7007L2.51652 12.8663C3.32721 12.0555 4.64122 12.0505 5.45799 12.8663L13.1332 20.5415ZM0.991299 19.6411C0.803642 19.4535 0.491661 19.488 0.346798 19.7104C-0.228652 20.5936 -0.0511864 21.6583 0.608238 22.3178L3.68177 25.3913C4.33548 26.045 5.39944 26.2331 6.2889 25.6531C6.51134 25.508 6.54623 25.1961 6.35847 25.0083L0.991299 19.6411ZM14.3947 8.77255C14.0697 8.44809 13.543 8.44809 13.218 8.77255L8.77227 13.2183C8.44729 13.5433 8.44729 14.07 8.77227 14.395L11.6045 17.2272C11.9284 17.5511 12.4552 17.5523 12.7812 17.2272L17.227 12.7815C17.5519 12.4565 17.5519 11.9298 17.227 11.6048L14.3947 8.77255ZM25.0089 6.35771C25.1967 6.54553 25.5088 6.51053 25.6538 6.28799C26.2333 5.39832 26.043 4.3341 25.391 3.68206L22.3174 0.608525C21.6596 -0.0488198 20.5956 -0.229977 19.7112 0.345992C19.4888 0.490856 19.4541 0.802889 19.6418 0.990598L25.0089 6.35771ZM17.6419 0.68236C16.8307 -0.128271 15.5111 -0.128791 14.7004 0.68236L12.866 2.51681C12.0553 3.32744 12.0503 4.64145 12.866 5.45827L20.5412 13.1335C21.3588 13.95 22.6729 13.9434 23.4827 13.1335L25.3171 11.2991C26.1278 10.4884 26.1278 9.16877 25.3171 8.35762L17.6419 0.68236Z"/>
        </symbol>
        <symbol id="pain" viewBox="0 0 32 33">
            <path d="M22.5481 6.77161C24.0754 5.33689 24.0754 3.01076 22.5481 1.57604C21.0208 0.14132 18.5445 0.14132 17.0171 1.57604C15.4898 3.01076 15.4898 5.3369 17.0171 6.77161C18.5445 8.20633 21.0208 8.20633 22.5481 6.77161Z"/>
            <path d="M6.86244 31.5726L9.7376 30.9956C11.0178 30.7371 12.2135 30.1942 13.2246 29.4126C14.2357 28.6309 15.0328 27.6331 15.5492 26.5028L16.2373 24.9857L18.2954 25.6456C18.9943 25.8669 19.6258 26.2439 20.1358 26.7443C20.6459 27.2446 21.0195 27.8536 21.2247 28.519L21.9948 30.977C22.1286 31.4163 22.4112 31.8027 22.7998 32.0775C23.1885 32.3524 23.6619 32.5007 24.1484 32.5C24.2359 32.5 24.325 32.494 24.4205 32.4806C24.7402 32.4454 25.0481 32.3461 25.3234 32.1893C25.5986 32.0324 25.8347 31.8219 26.0157 31.5718C26.1966 31.3217 26.3182 31.038 26.3721 30.7399C26.4261 30.4417 26.4111 30.1362 26.3282 29.844L25.4905 26.8547C24.95 24.9402 23.7495 23.2478 22.0767 22.042L19.6169 20.2753L20.5572 15.3916C21.6229 16.0134 22.8512 16.3455 24.1058 16.3512C25.3603 16.3569 26.5919 16.0358 27.664 15.4237L28.0999 15.1809C28.5227 14.9399 28.8267 14.5514 28.9453 14.1005C29.064 13.6495 28.9877 13.1727 28.7332 12.7745C28.4897 12.3981 28.105 12.1209 27.6549 11.9977C27.2048 11.8745 26.7218 11.914 26.3012 12.1086C25.7487 12.3634 25.1203 12.4338 24.5196 12.3081C23.9188 12.1825 23.3816 11.8683 22.9964 11.4173L22.6082 10.9562C21.7455 9.93408 20.5006 9.25906 19.1268 9.06852L16.1761 8.65824C15.1515 8.51506 14.1048 8.64827 13.1577 9.04236L12.6804 9.23442C9.15127 10.7007 6.93643 14.1114 7.1751 17.7277C7.20294 18.1888 7.44082 18.617 7.82269 18.9122C8.20455 19.1999 8.69462 19.3345 9.18548 19.2709C9.59635 19.2147 9.97328 19.025 10.2508 18.7349C10.5284 18.4448 10.6891 18.0726 10.705 17.6829C10.7371 16.8952 10.9705 16.1264 11.3854 15.4413C11.8004 14.7562 12.3848 14.175 13.0893 13.7467L10.4735 25.4984L5.50601 27.3285C5.06142 27.4889 4.67926 27.7726 4.41028 28.1417C4.1413 28.5109 3.99821 28.9483 4.00002 29.3956C4.00002 30.0682 4.32063 30.7019 4.87911 31.1242C5.43839 31.5464 6.15996 31.7131 6.86244 31.5726Z"/>
        </symbol>
        <symbol id="bill" viewBox="0 0 18 17">
            <path d="M7.875 4.71386V3.53525H1.125C0.505125 3.53525 0 4.06445 0 4.71386V7.07109H8.11238C7.956 6.35096 7.875 5.57543 7.875 4.71386ZM17.9539 9.42832C17.1866 10.667 16.0166 11.7207 14.3404 12.7296C14.0827 12.884 13.7925 12.9642 13.5 12.9642C13.2075 12.9642 12.9172 12.884 12.663 12.732C10.9867 11.7207 9.81675 10.6659 9.04838 9.42832H0V15.3214C0 15.972 0.505125 16.5 1.125 16.5H16.875C17.496 16.5 18 15.972 18 15.3214V9.42832H17.9539ZM5.0625 12.9642H2.8125C2.502 12.9642 2.25 12.7001 2.25 12.3749C2.25 12.0496 2.502 11.7855 2.8125 11.7855H5.0625C5.373 11.7855 5.625 12.0496 5.625 12.3749C5.625 12.7001 5.373 12.9642 5.0625 12.9642Z"/>
            <path d="M17.6591 1.81565L13.7216 0.0477335C13.6514 0.0162389 13.5758 0 13.4994 0C13.4231 0 13.3475 0.0162389 13.2773 0.0477335L9.33975 1.81565C9.13387 1.90759 9 2.12091 9 2.35664V4.71386C9 7.95623 10.1441 9.85144 13.2199 11.7078C13.3065 11.7596 13.4032 11.7855 13.5 11.7855C13.5968 11.7855 13.6935 11.7596 13.7801 11.7078C16.8559 9.85616 18 7.96095 18 4.71386V2.35664C18 2.12091 17.8661 1.90759 17.6591 1.81565ZM15.6274 4.49346L13.3774 7.44C13.2694 7.57907 13.1074 7.6604 12.9375 7.6604H12.9139C12.8254 7.65635 12.7391 7.63056 12.6619 7.58511C12.5847 7.53966 12.5188 7.47582 12.4695 7.39875L11.3445 5.63083C11.1724 5.35974 11.2421 4.99437 11.5009 4.81405C11.7574 4.6349 12.1073 4.70561 12.2805 4.97787L12.9791 6.07516L14.7476 3.75801C14.9423 3.50461 15.2966 3.46453 15.5385 3.66608C15.7815 3.86762 15.8197 4.23888 15.6274 4.49346Z"/>
        </symbol>
        <symbol id="user" viewBox="0 0 32 32">
            <path d="M22.62 7.12C22.62 3.47 19.65.5 16 .5S9.38 3.47 9.38 7.12c0 3.64 2.97 6.61 6.62 6.61s6.62-2.97 6.62-6.61zM4.5 26v2c0 1.93 1.57 3.5 3.5 3.5h16c1.93 0 3.5-1.57 3.5-3.5v-2c0-6.34-5.16-11.5-11.5-11.5S4.5 19.66 4.5 26z"/>
        </symbol>
        <symbol id="resetCircle" viewBox="0 0 18 20">
            <path fill-rule="evenodd" clip-rule="evenodd"
                  d="M8.57723 1.21355C8.87972 0.928816 9.37017 0.928816 9.67266 1.21355C9.97516 1.49829 9.97516 1.95994 9.67266 2.24468L7.58594 4.20888C7.9979 4.18714 8.504 4.1748 9.125 4.1748C10.6825 4.1748 12.2051 4.60955 13.5001 5.42406C14.7951 6.23858 15.8045 7.39627 16.4005 8.75076C16.9966 10.1052 17.1525 11.5957 16.8487 13.0336C16.5448 14.4715 15.7948 15.7923 14.6935 16.829C13.5921 17.8657 12.1889 18.5717 10.6613 18.8577C9.13373 19.1437 7.55033 18.9969 6.11137 18.4359C4.6724 17.8748 3.44249 16.9247 2.57718 15.7057C1.71186 14.4867 1.25 13.0535 1.25 11.5875C1.25 11.1848 1.5968 10.8583 2.02459 10.8583C2.45238 10.8583 2.79918 11.1848 2.79918 11.5875C2.79918 12.7651 3.17018 13.9164 3.86527 14.8956C4.56036 15.8748 5.54832 16.638 6.70421 17.0886C7.8601 17.5393 9.13201 17.6572 10.3591 17.4275C11.5862 17.1977 12.7133 16.6306 13.598 15.7979C14.4827 14.9651 15.0852 13.9042 15.3293 12.7491C15.5734 11.5941 15.4481 10.3968 14.9693 9.3088C14.4905 8.22077 13.6797 7.29082 12.6394 6.63653C11.5992 5.98225 10.3761 5.63303 9.125 5.63303C8.31165 5.63303 7.73257 5.65503 7.32523 5.68748L9.67266 7.8971C9.97516 8.18183 9.97516 8.64348 9.67266 8.92822C9.37017 9.21295 8.87972 9.21295 8.57723 8.92822L5.02702 5.58645C4.72453 5.30171 4.72453 4.84006 5.02702 4.55532L8.57723 1.21355Z"/>
            <path d="M9.67266 1.21355L9.32996 1.57763V1.57763L9.67266 1.21355ZM8.57723 1.21355L8.91993 1.57763L8.91993 1.57763L8.57723 1.21355ZM9.67266 2.24468L9.32996 1.8806V1.8806L9.67266 2.24468ZM7.58594 4.20888L7.6123 4.70819C7.40279 4.71925 7.20865 4.59833 7.12619 4.40541C7.04372 4.21249 7.09047 3.98861 7.24324 3.8448L7.58594 4.20888ZM13.5001 5.42406L13.7663 5.00082L13.5001 5.42406ZM16.4005 8.75076L16.8582 8.54937L16.4005 8.75076ZM16.8487 13.0336L17.3379 13.137H17.3379L16.8487 13.0336ZM14.6935 16.829L15.0362 17.1931H15.0362L14.6935 16.829ZM10.6613 18.8577L10.7534 19.3491H10.7534L10.6613 18.8577ZM6.11137 18.4359L5.92974 18.9017L6.11137 18.4359ZM3.86527 14.8956L3.45755 15.185L3.86527 14.8956ZM6.70421 17.0886L6.52258 17.5545L6.70421 17.0886ZM10.3591 17.4275L10.4511 17.9189H10.4511L10.3591 17.4275ZM13.598 15.7979L13.9407 16.162L13.598 15.7979ZM14.9693 9.3088L14.5116 9.51019L14.9693 9.3088ZM12.6394 6.63653L12.3732 7.05978L12.6394 6.63653ZM7.32523 5.68748L6.98253 6.05156C6.83853 5.91601 6.78795 5.70834 6.85349 5.52176C6.91904 5.33518 7.08839 5.20476 7.28552 5.18906L7.32523 5.68748ZM9.67266 7.8971L10.0154 7.53302V7.53302L9.67266 7.8971ZM9.67266 8.92822L10.0154 9.2923L9.67266 8.92822ZM8.57723 8.92822L8.23452 9.2923V9.2923L8.57723 8.92822ZM5.02702 5.58645L4.68432 5.95053L4.68432 5.95053L5.02702 5.58645ZM5.02702 4.55532L4.68432 4.19124L4.68432 4.19124L5.02702 4.55532ZM9.32996 1.57763C9.21999 1.47412 9.0299 1.47412 8.91993 1.57763L8.23452 0.849473C8.72955 0.383509 9.52034 0.383509 10.0154 0.849473L9.32996 1.57763ZM9.32996 1.8806C9.42273 1.79327 9.42273 1.66495 9.32996 1.57763L10.0154 0.849473C10.5276 1.33162 10.5276 2.1266 10.0154 2.60875L9.32996 1.8806ZM7.24324 3.8448L9.32996 1.8806L10.0154 2.60875L7.92865 4.57296L7.24324 3.8448ZM9.125 4.6748C8.51017 4.6748 8.0132 4.68702 7.6123 4.70819L7.55959 3.70958C7.9826 3.68725 8.49784 3.6748 9.125 3.6748V4.6748ZM13.2339 5.84731C12.0201 5.08389 10.5901 4.6748 9.125 4.6748V3.6748C10.7749 3.6748 12.39 4.13521 13.7663 5.00082L13.2339 5.84731ZM15.9429 8.95215C15.3885 7.6923 14.4474 6.61056 13.2339 5.84731L13.7663 5.00082C15.1429 5.86659 16.2205 7.10025 16.8582 8.54937L15.9429 8.95215ZM16.3595 12.9302C16.6415 11.5955 16.4971 10.2116 15.9429 8.95215L16.8582 8.54937C17.4961 9.99893 17.6635 11.5959 17.3379 13.137L16.3595 12.9302ZM14.3508 16.4649C15.3801 15.496 16.0774 14.2653 16.3595 12.9302L17.3379 13.137C17.0123 14.6778 16.2095 16.0886 15.0362 17.1931L14.3508 16.4649ZM10.5693 18.3662C12.0056 18.0973 13.3211 17.4341 14.3508 16.4649L15.0362 17.1931C13.8632 18.2972 12.3722 19.046 10.7534 19.3491L10.5693 18.3662ZM6.293 17.97C7.64436 18.4969 9.13292 18.6352 10.5693 18.3662L10.7534 19.3491C9.13454 19.6522 7.45631 19.4969 5.92974 18.9017L6.293 17.97ZM2.9849 15.4163C3.79174 16.5529 4.94181 17.4432 6.293 17.97L5.92974 18.9017C4.40299 18.3064 3.09324 17.2965 2.16946 15.9951L2.9849 15.4163ZM1.75 11.5875C1.75 12.9477 2.17835 14.2801 2.9849 15.4163L2.16946 15.9951C1.24537 14.6933 0.75 13.1594 0.75 11.5875H1.75ZM2.02459 11.3583C1.84401 11.3583 1.75 11.489 1.75 11.5875H0.75C0.75 10.8806 1.34958 10.3583 2.02459 10.3583V11.3583ZM2.29918 11.5875C2.29918 11.489 2.20517 11.3583 2.02459 11.3583V10.3583C2.69959 10.3583 3.29918 10.8806 3.29918 11.5875H2.29918ZM3.45755 15.185C2.7037 14.123 2.29918 12.871 2.29918 11.5875H3.29918C3.29918 12.6593 3.63667 13.7097 4.27299 14.6061L3.45755 15.185ZM6.52258 17.5545C5.27891 17.0696 4.21111 16.2466 3.45755 15.185L4.27299 14.6061C4.90961 15.503 5.81773 16.2063 6.88584 16.6228L6.52258 17.5545ZM10.4511 17.9189C9.13282 18.1658 7.76608 18.0393 6.52258 17.5545L6.88584 16.6228C7.95413 17.0393 9.13121 17.1487 10.2671 16.936L10.4511 17.9189ZM13.9407 16.162C12.9844 17.0621 11.7695 17.6721 10.4511 17.9189L10.2671 16.936C11.4029 16.7234 12.4423 16.1991 13.2553 15.4338L13.9407 16.162ZM15.8185 12.8525C15.5526 14.1104 14.8974 15.2615 13.9407 16.162L13.2553 15.4338C14.068 14.6688 14.6177 13.6979 14.8401 12.6457L15.8185 12.8525ZM15.4269 9.10741C15.9476 10.2905 16.0843 11.5943 15.8185 12.8525L14.8401 12.6457C15.0624 11.5938 14.9486 10.5031 14.5116 9.51019L15.4269 9.10741ZM12.9056 6.21329C14.0274 6.91883 14.9065 7.92474 15.4269 9.10741L14.5116 9.51019C14.0745 8.5168 13.332 7.6628 12.3732 7.05978L12.9056 6.21329ZM9.125 5.13303C10.4685 5.13303 11.7841 5.50791 12.9056 6.21329L12.3732 7.05978C11.4142 6.4566 10.2837 6.13303 9.125 6.13303V5.13303ZM7.28552 5.18906C7.71066 5.15519 8.30398 5.13303 9.125 5.13303V6.13303C8.31932 6.13303 7.75449 6.15486 7.36494 6.1859L7.28552 5.18906ZM9.32996 8.26117L6.98253 6.05156L7.66793 5.3234L10.0154 7.53302L9.32996 8.26117ZM9.32996 8.56414C9.42273 8.47682 9.42273 8.3485 9.32996 8.26117L10.0154 7.53302C10.5276 8.01517 10.5276 8.81015 10.0154 9.2923L9.32996 8.56414ZM8.91993 8.56414C9.0299 8.66765 9.21999 8.66765 9.32996 8.56414L10.0154 9.2923C9.52034 9.75826 8.72955 9.75826 8.23452 9.2923L8.91993 8.56414ZM5.36973 5.22237L8.91993 8.56414L8.23452 9.2923L4.68432 5.95053L5.36973 5.22237ZM5.36973 4.9194C5.27696 5.00673 5.27696 5.13505 5.36973 5.22237L4.68432 5.95053C4.1721 5.46837 4.1721 4.6734 4.68432 4.19124L5.36973 4.9194ZM8.91993 1.57763L5.36973 4.9194L4.68432 4.19124L8.23452 0.849473L8.91993 1.57763Z"/>
        </symbol>
        <symbol id="more" viewBox="0 0 32 32">
            <path d="M10 0H4C1.79086 0 0 1.79086 0 4V10C0 12.2091 1.79086 14 4 14H10C12.2091 14 14 12.2091 14 10V4C14 1.79086 12.2091 0 10 0Z"/>
            <path d="M10 18H4C1.79086 18 0 19.7909 0 22V28C0 30.2091 1.79086 32 4 32H10C12.2091 32 14 30.2091 14 28V22C14 19.7909 12.2091 18 10 18Z"/>
            <path d="M28 17.9885H22C19.7909 17.9885 18 19.7794 18 21.9885V27.9885C18 30.1977 19.7909 31.9885 22 31.9885H28C30.2091 31.9885 32 30.1977 32 27.9885V21.9885C32 19.7794 30.2091 17.9885 28 17.9885Z"/>
            <path d="M25 14C28.866 14 32 10.866 32 7C32 3.13401 28.866 0 25 0C21.134 0 18 3.13401 18 7C18 10.866 21.134 14 25 14Z"/>
        </symbol>
        <symbol id="logOut" viewBox="0 0 18 17">
            <path fill-rule="evenodd" clip-rule="evenodd"
                  d="M6 4.74206C6 3.32732 6 2.61995 6.327 2.07932C6.61461 1.60398 7.07354 1.21752 7.638 0.97532C8.28 0.699951 9.12 0.699951 10.8 0.699951H13.2C14.88 0.699951 15.72 0.699951 16.362 0.97532C16.9265 1.21752 17.3854 1.60398 17.673 2.07932C18 2.61995 18 3.32732 18 4.74206V12.6578C18 14.0726 18 14.78 17.673 15.3206C17.3854 15.7959 16.9265 16.1824 16.362 16.4246C15.72 16.7 14.88 16.7 13.2 16.7H10.8C9.12 16.7 8.28 16.7 7.638 16.4246C7.07354 16.1824 6.61461 15.7959 6.327 15.3206C6 14.78 6 14.0726 6 12.6578V11.4368H10C10.862 11.4368 11.6886 11.1484 12.2981 10.6352C12.9076 10.1219 13.25 9.42581 13.25 8.69995C13.25 7.9741 12.9076 7.27797 12.2981 6.76471C11.6886 6.25145 10.862 5.96311 10 5.96311H6V4.74206Z"/>
            <path fill-rule="evenodd" clip-rule="evenodd"
                  d="M4.34427 6.75748C4.4425 6.66188 4.52042 6.54839 4.57358 6.42348C4.62674 6.29858 4.6541 6.1647 4.6541 6.02951C4.6541 5.89431 4.62674 5.76044 4.57358 5.63553C4.52042 5.51063 4.4425 5.39713 4.34427 5.30154C4.24605 5.20594 4.12943 5.1301 4.00109 5.07837C3.87275 5.02663 3.7352 5 3.59629 5C3.45737 5 3.31982 5.02663 3.19148 5.07837C3.06314 5.1301 2.94653 5.20594 2.8483 5.30154L0.309884 7.77203C0.21164 7.86762 0.133708 7.98111 0.0805373 8.10601C0.0273668 8.23092 0 8.3648 0 8.5C0 8.6352 0.0273668 8.76908 0.0805373 8.89399C0.133708 9.01889 0.21164 9.13238 0.309884 9.22797L2.8483 11.6985C3.04668 11.8915 3.31574 12 3.59629 12C3.87684 12 4.14589 11.8915 4.34427 11.6985C4.54265 11.5054 4.6541 11.2435 4.6541 10.9705C4.6541 10.6975 4.54265 10.4356 4.34427 10.2425L3.61152 9.52937H9.94233C10.2228 9.52937 10.4919 9.42092 10.6902 9.22788C10.8886 9.03483 11 8.77301 11 8.5C11 8.22699 10.8886 7.96517 10.6902 7.77212C10.4919 7.57908 10.2228 7.47063 9.94233 7.47063H3.61152L4.34427 6.75748Z"/>
        </symbol>
        <symbol id="checkMark" viewBox="0 0 16 16">
            <path d="M7.53535 11.1571C7.31713 11.3767 7.02121 11.5 6.71266 11.5C6.40412 11.5 6.1082 11.3767 5.88998 11.1571L3.34069 8.59088C3.23267 8.48213 3.14698 8.35302 3.08853 8.21093C3.03007 8.06884 2.99999 7.91656 3 7.76277C3.00001 7.60898 3.03011 7.45669 3.08859 7.31461C3.14706 7.17253 3.23276 7.04344 3.3408 6.9347C3.44884 6.82596 3.57709 6.73971 3.71824 6.68087C3.85939 6.62202 4.01068 6.59174 4.16345 6.59175C4.31623 6.59176 4.46751 6.62206 4.60865 6.68092C4.7498 6.73979 4.87804 6.82606 4.98606 6.93481L6.50494 8.46354C6.56015 8.51885 6.63488 8.5499 6.71277 8.5499C6.79067 8.5499 6.86539 8.51885 6.92061 8.46354L11.0333 4.32359C11.2532 4.11255 11.5463 3.99645 11.8501 4.00008C12.1539 4.00372 12.4443 4.12681 12.6591 4.34305C12.8739 4.55929 12.9963 4.85154 12.9999 5.15735C13.0036 5.46316 12.8883 5.75828 12.6786 5.97966L7.53535 11.1571Z"
                  fill="white"/>
        </symbol>
        <symbol id="checkMarkSimple" viewBox="0 0 10 11">
            <path d="M4.53535 10.1571C4.31713 10.3767 4.02121 10.5 3.71266 10.5C3.40412 10.5 3.1082 10.3767 2.88998 10.1571L0.34069 7.59088C0.232668 7.48213 0.146983 7.35302 0.0885271 7.21093C0.0300714 7.06884 -1.01753e-05 6.91656 2.58184e-09 6.76277C1.01805e-05 6.60898 0.0301119 6.45669 0.0885865 6.31461C0.147061 6.17253 0.232763 6.04344 0.3408 5.9347C0.448837 5.82596 0.577092 5.73971 0.718243 5.68087C0.859395 5.62202 1.01068 5.59174 1.16345 5.59175C1.31623 5.59176 1.46751 5.62206 1.60865 5.68092C1.7498 5.73979 1.87804 5.82606 1.98606 5.93481L3.50494 7.46354C3.56015 7.51885 3.63488 7.5499 3.71277 7.5499C3.79067 7.5499 3.86539 7.51885 3.92061 7.46354L8.03327 3.32359C8.25317 3.11255 8.54633 2.99645 8.85012 3.00008C9.15392 3.00372 9.44426 3.12681 9.6591 3.34305C9.87395 3.55929 9.99626 3.85154 9.99992 4.15735C10.0036 4.46316 9.88827 4.75828 9.67865 4.97966L4.53535 10.1571Z"/>
        </symbol>
        <symbol id="checkMarkDouble" width="16" height="10" viewBox="0 0 16 10">
            <path d="M11.4183 0.672342C11.0819 0.44843 10.493 0.44843 10.2407 0.821616L4.35255 7.53896L1.49259 4.4042C1.24024 4.10565 0.651426 4.03102 0.31496 4.25493C-0.0215057 4.47884 -0.105622 5.0013 0.146727 5.29985L3.67962 9.18098C3.84785 9.40489 4.1002 9.47953 4.35255 9.47953C4.6049 9.47953 4.85725 9.40489 5.02548 9.18098L11.5866 1.71726C11.923 1.41871 11.8389 0.97089 11.4183 0.672342ZM15.6242 0.672342C15.2877 0.44843 14.6989 0.44843 14.4465 0.821616L8.55837 7.53896L8.05367 6.94187L6.96016 8.13606L7.88544 9.18098C8.05367 9.33026 8.30602 9.47953 8.55837 9.47953C8.81072 9.47953 9.06307 9.40489 9.2313 9.18098L15.7924 1.71726C16.1289 1.41871 16.0447 0.896253 15.6242 0.672342Z"/>
            <path d="M4.77313 5.82231L5.86664 4.62811L5.69841 4.47884C5.44606 4.10565 4.85725 4.03102 4.52078 4.25493C4.18432 4.47884 4.1002 5.0013 4.35255 5.29985L4.77313 5.82231Z"/>
        </symbol>
        <symbol id="eye" viewBox="0 0 22 14">
            <path d="M11 0C6.79667 0 2.98486 2.45504 0.172139 6.44269C-0.0573796 6.76939 -0.0573796 7.22581 0.172139 7.55251C2.98486 11.545 6.79667 14 11 14C15.2033 14 19.0151 11.545 21.8279 7.55731C22.0574 7.23061 22.0574 6.77419 21.8279 6.4475C19.0151 2.45505 15.2033 0 11 0ZM11.3015 11.9293C8.5113 12.1167 6.20712 9.66163 6.38263 6.67811C6.52664 4.21826 8.39429 2.22443 10.6985 2.07069C13.4887 1.88332 15.7929 4.33837 15.6174 7.32189C15.4689 9.77694 13.6012 11.7708 11.3015 11.9293ZM11.162 9.65203C9.65889 9.75292 8.41679 8.43171 8.5158 6.82704C8.59231 5.50103 9.60039 4.42965 10.8425 4.34317C12.3456 4.24228 13.5877 5.56349 13.4887 7.16815C13.4077 8.49897 12.3996 9.57035 11.162 9.65203Z"/>
        </symbol>
        <symbol id="eyeSlash" viewBox="0 0 22 20">
            <path d="M10.9956 16.6431C11.7071 16.6431 12.4028 16.5387 13.0789 16.363L15.1485 19.5879C15.439 20.039 15.9914 20.1343 16.3833 19.8014C16.7756 19.4668 16.8584 18.8303 16.5687 18.3786C3.09862 -2.63122 8.57766 5.92644 5.03878 0.411995C4.74862 -0.03779 4.19631 -0.135095 3.80396 0.198521C3.41161 0.533129 3.32883 1.16958 3.61856 1.62135L5.01076 3.79072C2.6815 5.43726 0.919974 7.57461 0.178821 8.57024C-0.059607 8.88543 -0.059607 9.35309 0.178821 9.66827C1.47681 11.4069 5.83 16.6431 10.9956 16.6431ZM6.91409 6.75665L8.74121 9.60373C8.86365 10.314 9.25988 10.9075 9.79705 11.249L11.636 14.1145C11.3704 14.1731 11.0994 14.2131 10.819 14.2131C8.39073 14.2131 6.39514 11.9255 6.39514 9.12944C6.39514 8.27157 6.58598 7.46552 6.91409 6.75665Z"/>
            <path d="M10.9956 1.60559C10.0684 1.60559 9.16778 1.77848 8.3024 2.06313L9.68872 4.2186C10.0508 4.10677 10.4305 4.04577 10.819 4.04577C13.2472 4.04577 15.2252 6.31307 15.2252 9.12943C15.2252 10.1055 14.9779 11.0307 14.5629 11.8034L16.4879 14.8028C19.075 13.1252 21.0265 10.7359 21.8212 9.66827C22.0596 9.35309 22.0596 8.88543 21.8212 8.57024C20.5232 6.83161 16.17 1.60559 10.9956 1.60559Z"/>
            <path d="M12.9205 9.12944C12.9205 7.9907 12.2494 7.04515 11.3311 6.78079L12.9205 9.25144V9.12944Z"/>
        </symbol>
        <symbol id="fit" viewBox="0 0 18 18">
            <path d="M16.771 10.8231C16.1301 11.1403 15.3484 11.1526 14.7094 10.8236C14.082 10.5007 13.6652 9.8702 13.6331 9.18094C13.6013 8.49864 13.9406 7.83539 14.4941 7.41966C15.0713 6.98617 15.8495 6.83476 16.5498 7.04385C17.2287 7.24656 17.7674 7.7786 17.9407 8.44986C18.1106 9.10814 17.9064 9.81581 17.4448 10.3195C17.2552 10.5263 17.0252 10.6973 16.771 10.8231ZM13.3129 8.82992C13.3088 8.74103 13.3163 8.65307 13.3046 8.56418C13.2931 8.47641 13.2934 8.38695 13.29 8.29853L13.2653 7.65262C13.247 7.17582 13.2337 6.69867 13.2224 6.22167C13.2108 5.72534 13.1994 5.22898 13.1905 4.73262C13.1867 4.51921 13.1879 4.30508 13.1781 4.09187C13.1682 3.87514 13.1585 3.65842 13.1487 3.44169C13.1272 2.96607 13.1094 2.48999 13.0977 2.01402C13.0876 1.60368 13.0842 1.19329 13.076 0.782948C13.0691 0.437232 12.8239 0.126656 12.4811 0.0306681C12.1351 -0.0662746 11.7549 0.0723405 11.5597 0.365537C11.4692 0.501478 11.4294 0.655945 11.4284 0.816637C11.4272 1.01598 11.4238 1.21529 11.4204 1.41464C11.4125 1.88217 11.3988 2.34969 11.3808 2.81699C11.371 3.07879 11.3603 3.34057 11.3487 3.60231C11.3404 3.78668 11.3249 3.97209 11.3236 4.15665C11.3237 4.14699 11.3222 4.13587 11.324 4.12636C11.3141 4.18022 11.3154 4.23954 11.3112 4.29382L11.2821 4.66333C11.2626 4.91218 11.2422 5.16099 11.2221 5.40984C11.2023 5.65613 11.1811 5.90235 11.1603 6.1486C11.1502 6.26835 11.1395 6.38805 11.1289 6.50776C11.1269 6.53072 11.1579 6.53545 11.1779 6.54477C11.1987 6.5544 11.2193 6.56422 11.2399 6.57415C11.2863 6.59656 11.3323 6.61963 11.378 6.64336C11.5136 6.71375 11.6471 6.78873 11.7753 6.87124C11.8239 6.90256 11.8721 6.93495 11.9174 6.97066C11.9443 6.99182 11.9772 7.01585 11.9934 7.04641C11.6986 6.95275 11.4048 6.85077 11.1057 6.77048C11.1063 6.76456 10.9018 6.71673 10.881 6.71154C10.8 6.69124 10.7186 6.67222 10.6369 6.65447C10.4643 6.61707 10.2906 6.58493 10.1159 6.5581C9.25992 6.4261 8.3875 6.4112 7.52339 6.45612C7.08437 6.47896 6.6442 6.52208 6.21881 6.63431C6.05665 6.67709 5.89696 6.72995 5.74374 6.79706C5.67606 6.8266 5.60983 6.85916 5.54526 6.89465C5.51597 6.9108 5.48708 6.92761 5.45861 6.94507C5.22041 7.00454 5.00199 7.12239 4.8243 7.28731C4.69235 7.41004 4.59825 7.55461 4.51108 7.70877C4.30146 8.08002 4.09494 8.45291 3.89154 8.8274C3.42455 9.68598 2.96792 10.5497 2.51708 11.4164C2.42069 11.6016 2.31576 11.7848 2.22812 11.9741L2.05206 12.3543C1.84002 12.8124 1.6292 13.2709 1.41959 13.73C1.02839 14.5867 0.64754 15.4477 0.271498 16.3108C0.202648 16.4683 0.134938 16.6262 0.0683711 16.7846C-0.00106385 16.9483 -0.0180958 17.1285 0.01949 17.3017C0.0960612 17.6537 0.395847 17.9317 0.762397 17.9891C1.11638 18.0444 1.48009 17.8862 1.67259 17.5929C1.88851 17.2638 2.08554 16.922 2.2904 16.5864C2.79689 15.7567 3.28748 14.9177 3.77881 14.0796C3.99399 13.7125 4.20554 13.3434 4.41867 12.9752L4.41592 12.9802C4.41828 12.9761 4.42045 12.972 4.42277 12.9679C4.41068 12.9891 4.3991 13.0105 4.38724 13.0317C4.82276 12.3901 5.25915 11.7487 5.68789 11.1029C5.83552 10.8805 5.97787 10.6548 6.12164 10.43C6.13054 10.4684 6.11849 10.5137 6.11049 10.5511C6.09588 10.6193 6.07583 10.6864 6.05448 10.7529C6.00024 10.9217 5.93564 11.0878 5.86348 11.2502C5.84674 11.2879 5.82949 11.3253 5.81157 11.3625C5.79909 11.3884 5.78626 11.4142 5.77309 11.4397C5.7634 11.4585 5.76781 11.4612 5.7786 11.4797C5.83914 11.583 5.90008 11.6861 5.96101 11.7893C6.08508 11.9993 6.21002 12.2089 6.3356 12.4181C6.45657 12.6199 6.57833 12.8214 6.70084 13.0224C6.7643 13.1263 6.82779 13.2303 6.89121 13.3342L6.97329 13.4688C6.98204 13.4832 6.99393 13.4979 7.00032 13.5134C6.98834 13.4842 6.9727 13.4563 6.95982 13.4275C7.05971 13.6511 7.1789 13.8688 7.28813 14.0881C7.51149 14.5371 7.73739 14.9849 7.96581 15.4315C8.18314 15.8562 8.4028 16.2797 8.62478 16.7022C8.72691 16.897 8.83033 17.0911 8.935 17.2847C8.99574 17.3967 9.05072 17.5179 9.12694 17.6213C9.34633 17.919 9.74569 18.0559 10.1092 17.9577C10.4568 17.8637 10.7195 17.5706 10.7666 17.2236C10.7858 17.0827 10.7656 16.9455 10.7212 16.811C10.6651 16.6407 10.6084 16.4706 10.5511 16.3007C10.4006 15.8559 10.2475 15.4119 10.0897 14.9697C9.8095 14.1844 9.52354 13.4013 9.23404 12.6192L9.20292 12.5351C9.20532 12.5402 9.20796 12.5452 9.21017 12.5504C9.19748 12.5211 9.18023 12.4867 9.1681 12.4611C9.08735 12.2723 9.00681 12.0834 8.92606 11.8945C8.87913 11.7846 8.83193 11.6748 8.78446 11.5651C8.76114 11.5113 8.73774 11.4575 8.71423 11.4037C8.66753 11.3983 8.62094 11.3922 8.57448 11.3851C8.38887 11.3576 8.20492 11.3203 8.02343 11.2736C7.95253 11.2552 7.88175 11.2355 7.8129 11.2107C7.77359 11.1966 7.72396 11.1817 7.69355 11.152C8.02284 11.1555 8.3565 11.1617 8.68283 11.1541C9.14715 11.1434 9.61138 11.1088 10.0706 11.0403C10.4199 10.9883 10.7663 10.9164 11.1057 10.8202C11.147 11.2888 11.1879 11.7574 11.2257 12.2263C11.245 12.4653 11.2645 12.7043 11.2833 12.9434L11.3112 13.2979C11.3154 13.3522 11.3141 13.4115 11.324 13.4654C11.3222 13.4559 11.3237 13.4447 11.3236 13.4351C11.3247 13.5951 11.3382 13.7559 11.3454 13.9158C11.3564 14.1594 11.3665 14.4031 11.3758 14.6468C11.3937 15.1133 11.4119 15.5802 11.4182 16.047C11.421 16.2589 11.4268 16.4707 11.4278 16.6827C11.4286 16.8453 11.4377 16.9985 11.5137 17.1474C11.6734 17.4598 12.0339 17.6388 12.3886 17.5814C12.7391 17.5248 13.0196 17.2451 13.0683 16.9038C13.0787 16.8306 13.0763 16.7563 13.0767 16.6827C13.0772 16.5836 13.0789 16.4847 13.0806 16.3857C13.0845 16.1606 13.088 15.9355 13.0942 15.7105C13.1186 14.8048 13.1718 13.9 13.1881 12.9942C13.2053 12.0184 13.2294 11.0427 13.2606 10.0672C13.2677 9.84659 13.2771 9.62597 13.2856 9.40539L13.2953 9.15199C13.2995 9.04412 13.3178 8.93813 13.3129 8.82992Z"/>
        </symbol>
        <symbol id="phoneCircle" viewBox="0 0 32 33">
            <g clip-path="url(#clip0_7945_4264)">
                <g opacity="0.2" filter="url(#filter0_f_7945_4264)">
                    <ellipse cx="16" cy="16.6942" rx="16" ry="15.9942" fill="url(#paint0_radial_7945_4264)"
                             fill-opacity="0.8"/>
                </g>
                <g opacity="0.9">
                    <path d="M21.9176 31.4793C21.934 31.5203 21.9141 31.5669 21.873 31.5831C19.899 32.3621 17.7894 32.7407 15.6672 32.6965C13.5183 32.6518 11.4004 32.1746 9.44002 31.2934C7.47962 30.4121 5.71686 29.1449 4.25698 27.5674C2.79709 25.9899 1.67001 24.1345 0.943021 22.1118C0.216027 20.0891 -0.0959776 17.9407 0.0256307 15.7947C0.147239 13.6488 0.699967 11.5494 1.65082 9.62179C2.60168 7.69418 3.93116 5.97792 5.55992 4.57545C7.16846 3.19038 9.03632 2.13941 11.0546 1.48347C11.0966 1.46981 11.1416 1.49305 11.1551 1.53513C11.1685 1.57722 11.1453 1.62222 11.1033 1.63588C9.10549 2.28528 7.25657 3.32565 5.66432 4.69669C4.05185 6.08514 2.73566 7.78424 1.79431 9.69257C0.852968 11.6009 0.305767 13.6793 0.185374 15.8038C0.0649821 17.9283 0.373867 20.0552 1.09359 22.0577C1.81331 24.0601 2.92912 25.897 4.37441 27.4588C5.81969 29.0205 7.56482 30.275 9.50562 31.1474C11.4464 32.0199 13.5431 32.4923 15.6705 32.5366C17.7713 32.5803 19.8594 32.2056 21.8135 31.4346C21.8546 31.4184 21.9012 31.4383 21.9176 31.4793Z"
                          stroke="#E50000" stroke-width="0.5"/>
                    <path d="M31.3935 12.6395C31.4362 12.6283 31.48 12.6538 31.491 12.6966C32.249 15.6294 32.1589 18.7178 31.2304 21.6024C30.302 24.487 28.5736 27.048 26.2471 28.9881C26.2132 29.0163 26.1627 29.0115 26.1346 28.9775C26.1065 28.9434 26.1113 28.893 26.1453 28.8647C28.4482 26.9441 30.159 24.4088 31.0781 21.5534C31.9973 18.6979 32.0865 15.6407 31.3363 12.7374C31.3253 12.6946 31.3508 12.6508 31.3935 12.6395Z"
                          stroke="#E50000" stroke-width="0.5"/>
                    <path d="M16.5291 0.78879C16.5306 0.744632 16.5676 0.710005 16.6117 0.711694C18.8081 0.795725 20.9639 1.33141 22.9445 2.28564C24.9252 3.23988 26.6877 4.59194 28.1222 6.2572C28.151 6.29068 28.147 6.3412 28.1134 6.36987C28.0798 6.39853 28.0293 6.3945 28.0005 6.36102C26.5804 4.71269 24.8357 3.37436 22.8751 2.42978C20.9145 1.48521 18.7805 0.954898 16.6064 0.871608C16.5622 0.869916 16.5276 0.832949 16.5291 0.78879Z"
                          stroke="#E50000" stroke-width="0.5"/>
                    <path d="M8.25137 28.752C8.22986 28.7854 8.18529 28.7951 8.15195 28.7734C6.36418 27.6114 4.85653 26.0666 3.7382 24.2504C2.60728 22.4138 1.90338 20.3466 1.67849 18.2014C1.4536 16.0563 1.71346 13.8881 2.43888 11.8569C3.15623 9.84824 4.3107 8.02434 5.81858 6.51674C5.8467 6.48862 5.89232 6.48886 5.92029 6.51712C5.94826 6.54538 5.94801 6.59096 5.91989 6.61908C4.42734 8.11151 3.28458 9.91698 2.57449 11.9053C1.85632 13.9162 1.59906 16.0628 1.82171 18.1864C2.04435 20.3101 2.74121 22.3566 3.86082 24.1749C4.96784 25.9727 6.4602 27.5019 8.22983 28.6523C8.26317 28.674 8.27287 28.7185 8.25137 28.752Z"
                          stroke="#E50000" stroke-width="0.5"/>
                    <path d="M28.8001 8.38C28.5355 8.38 28.32 8.16478 28.32 7.90011C28.32 7.63545 28.5352 7.42 28.8001 7.42C29.0648 7.42 29.28 7.63521 29.28 7.90011C29.2802 8.16454 29.0648 8.38 28.8001 8.38ZM28.8001 7.52502C28.5934 7.52502 28.425 7.69314 28.425 7.90011C28.425 8.10685 28.5931 8.27498 28.8001 8.27498C29.0069 8.27498 29.1752 8.10685 29.1752 7.90011C29.1752 7.69314 29.0069 7.52502 28.8001 7.52502Z"
                          stroke="#E50000" stroke-width="0.5"/>
                    <path d="M24.1601 30.78C23.8955 30.78 23.68 30.5648 23.68 30.3001C23.68 30.0355 23.8952 29.82 24.1601 29.82C24.4248 29.82 24.64 30.0352 24.64 30.3001C24.6402 30.5645 24.4248 30.78 24.1601 30.78ZM24.1601 29.925C23.9534 29.925 23.785 30.0931 23.785 30.3001C23.785 30.5069 23.9531 30.675 24.1601 30.675C24.3669 30.675 24.5352 30.5069 24.5352 30.3001C24.5352 30.0931 24.3669 29.925 24.1601 29.925Z"
                          stroke="#E50000" stroke-width="0.5"/>
                </g>
                <path d="M13.4875 9.43753C13.0773 8.9875 12.521 8.73414 11.9396 8.73265C11.3583 8.73115 10.7991 8.98163 10.3838 9.42953C8.58334 11.3852 8.12854 14.5152 9.63864 16.8959C11.4781 19.7952 13.3891 21.9211 15.8447 23.7671C18.0157 25.3995 20.8371 24.8375 22.5989 22.9252C23.474 21.9747 23.5264 20.4177 22.6424 19.4525L21.1484 17.8166C20.748 17.3771 20.209 17.1228 19.6417 17.1058C19.0744 17.0888 18.5218 17.3104 18.0971 17.7252L17.3655 18.4449C16.8774 18.9247 14.3177 15.8746 14.377 15.2898C14.404 15.0339 14.9106 14.6192 15.0675 14.4307C15.451 13.9691 15.6576 13.3636 15.6443 12.7405C15.631 12.1175 15.3987 11.5251 14.996 11.0871L13.4875 9.43753Z"
                      stroke="#E50000" stroke-width="0.5"/>
            </g>
            <defs>
                <filter id="filter0_f_7945_4264" x="-100" y="-99.3" width="232" height="231.988"
                        filterUnits="userSpaceOnUse" color-interpolation-filters="sRGB">
                    <feFlood flood-opacity="0" result="BackgroundImageFix"/>
                    <feBlend mode="normal" in="SourceGraphic" in2="BackgroundImageFix" result="shape"/>
                    <feGaussianBlur stdDeviation="50" result="effect1_foregroundBlur_7945_4264"/>
                </filter>
                <radialGradient id="paint0_radial_7945_4264" cx="0" cy="0" r="1" gradientUnits="userSpaceOnUse"
                                gradientTransform="translate(16 16.6942) rotate(90) scale(15.9942 16)">
                    <stop stop-color="#C83800" stop-opacity="0.6"/>
                    <stop offset="1" stop-color="#FE4B00" stop-opacity="0"/>
                </radialGradient>
                <clipPath id="clip0_7945_4264">
                    <rect width="32" height="32" fill="white" transform="translate(0 0.699997)"/>
                </clipPath>
            </defs>
        </symbol>
        <symbol id="emailCircle" viewBox="0 0 32 33">
            <g clip-path="url(#clip0_7945_4265)">
                <g opacity="0.2" filter="url(#filter0_f_7945_4265)">
                    <ellipse cx="16" cy="16.6942" rx="16" ry="15.9942" fill="url(#paint0_radial_7945_4265)"
                             fill-opacity="0.8"/>
                </g>
                <g opacity="0.9">
                    <path d="M21.9176 31.4793C21.934 31.5203 21.9141 31.5669 21.873 31.5831C19.899 32.3621 17.7894 32.7407 15.6672 32.6965C13.5183 32.6518 11.4004 32.1746 9.44002 31.2934C7.47962 30.4121 5.71686 29.1449 4.25698 27.5674C2.79709 25.9899 1.67001 24.1345 0.943021 22.1118C0.216027 20.0891 -0.0959776 17.9407 0.0256307 15.7947C0.147239 13.6488 0.699967 11.5494 1.65082 9.62179C2.60168 7.69418 3.93116 5.97792 5.55992 4.57545C7.16846 3.19038 9.03632 2.13941 11.0546 1.48347C11.0966 1.46981 11.1416 1.49305 11.1551 1.53513C11.1685 1.57722 11.1453 1.62222 11.1033 1.63588C9.10549 2.28528 7.25657 3.32565 5.66432 4.69669C4.05185 6.08514 2.73566 7.78424 1.79431 9.69257C0.852968 11.6009 0.305767 13.6793 0.185374 15.8038C0.0649821 17.9283 0.373867 20.0552 1.09359 22.0577C1.81331 24.0601 2.92912 25.897 4.37441 27.4588C5.81969 29.0205 7.56482 30.275 9.50562 31.1474C11.4464 32.0199 13.5431 32.4923 15.6705 32.5366C17.7713 32.5803 19.8594 32.2056 21.8135 31.4346C21.8546 31.4184 21.9012 31.4383 21.9176 31.4793Z"
                          stroke="#E50000" stroke-width="0.5"/>
                    <path d="M31.3935 12.6395C31.4362 12.6283 31.48 12.6538 31.491 12.6966C32.249 15.6294 32.1589 18.7178 31.2304 21.6024C30.302 24.487 28.5736 27.048 26.2471 28.9881C26.2132 29.0163 26.1627 29.0115 26.1346 28.9775C26.1065 28.9434 26.1113 28.893 26.1453 28.8647C28.4482 26.9441 30.159 24.4088 31.0781 21.5534C31.9973 18.6979 32.0865 15.6407 31.3363 12.7374C31.3253 12.6946 31.3508 12.6508 31.3935 12.6395Z"
                          stroke="#E50000" stroke-width="0.5"/>
                    <path d="M16.5291 0.78879C16.5306 0.744632 16.5676 0.710005 16.6117 0.711694C18.8081 0.795725 20.9639 1.33141 22.9445 2.28564C24.9252 3.23988 26.6877 4.59194 28.1222 6.2572C28.151 6.29068 28.147 6.3412 28.1134 6.36987C28.0798 6.39853 28.0293 6.3945 28.0005 6.36102C26.5804 4.71269 24.8357 3.37436 22.8751 2.42978C20.9145 1.48521 18.7805 0.954898 16.6064 0.871608C16.5622 0.869916 16.5276 0.832949 16.5291 0.78879Z"
                          stroke="#E50000" stroke-width="0.5"/>
                    <path d="M8.25137 28.752C8.22986 28.7854 8.18529 28.7951 8.15195 28.7734C6.36418 27.6114 4.85653 26.0666 3.7382 24.2504C2.60728 22.4138 1.90338 20.3466 1.67849 18.2014C1.4536 16.0563 1.71346 13.8881 2.43888 11.8569C3.15623 9.84824 4.3107 8.02434 5.81858 6.51674C5.8467 6.48862 5.89232 6.48886 5.92029 6.51712C5.94826 6.54538 5.94801 6.59096 5.91989 6.61908C4.42734 8.11151 3.28458 9.91698 2.57449 11.9053C1.85632 13.9162 1.59906 16.0628 1.82171 18.1864C2.04435 20.3101 2.74121 22.3566 3.86082 24.1749C4.96784 25.9727 6.4602 27.5019 8.22983 28.6523C8.26317 28.674 8.27287 28.7185 8.25137 28.752Z"
                          stroke="#E50000" stroke-width="0.5"/>
                    <path d="M28.8001 8.38C28.5355 8.38 28.32 8.16478 28.32 7.90011C28.32 7.63545 28.5352 7.42 28.8001 7.42C29.0648 7.42 29.28 7.63521 29.28 7.90011C29.2802 8.16454 29.0648 8.38 28.8001 8.38ZM28.8001 7.52502C28.5934 7.52502 28.425 7.69314 28.425 7.90011C28.425 8.10685 28.5931 8.27498 28.8001 8.27498C29.0069 8.27498 29.1752 8.10685 29.1752 7.90011C29.1752 7.69314 29.0069 7.52502 28.8001 7.52502Z"
                          stroke="#E50000" stroke-width="0.5"/>
                    <path d="M24.1601 30.78C23.8955 30.78 23.68 30.5648 23.68 30.3001C23.68 30.0355 23.8952 29.82 24.1601 29.82C24.4248 29.82 24.64 30.0352 24.64 30.3001C24.6402 30.5645 24.4248 30.78 24.1601 30.78ZM24.1601 29.925C23.9534 29.925 23.785 30.0931 23.785 30.3001C23.785 30.5069 23.9531 30.675 24.1601 30.675C24.3669 30.675 24.5352 30.5069 24.5352 30.3001C24.5352 30.0931 24.3669 29.925 24.1601 29.925Z"
                          stroke="#E50000" stroke-width="0.5"/>
                </g>
                <path d="M8,10 L24,10 A3,3 0 0 1 27,13 L27,20 A3,3 0 0 1 24,23 L8,23 A3,3 0 0 1 5,20 L5,13 A3,3 0 0 1 8,10"
                      stroke="#E50000" stroke-width="0.5"/>
                <path d="M6,11 L15,17 A3,3 1 0 0 17,17 L26,11" stroke="#E50000" stroke-width="0.5"/>
            </g>
            <defs>
                <filter id="filter0_f_7945_4265" x="-100" y="-99.3" width="232" height="231.988"
                        filterUnits="userSpaceOnUse" color-interpolation-filters="sRGB">
                    <feFlood flood-opacity="0" result="BackgroundImageFix"/>
                    <feBlend mode="normal" in="SourceGraphic" in2="BackgroundImageFix" result="shape"/>
                    <feGaussianBlur stdDeviation="50" result="effect1_foregroundBlur_7945_4264"/>
                </filter>
                <radialGradient id="paint0_radial_7945_4265" cx="0" cy="0" r="1" gradientUnits="userSpaceOnUse"
                                gradientTransform="translate(16 16.6942) rotate(90) scale(15.9942 16)">
                    <stop stop-color="#C83800" stop-opacity="0.6"/>
                    <stop offset="1" stop-color="#FE4B00" stop-opacity="0"/>
                </radialGradient>
                <clipPath id="clip0_7945_4265">
                    <rect width="32" height="32" fill="white" transform="translate(0 0.699997)"/>
                </clipPath>
            </defs>
        </symbol>
        <symbol id="play" viewBox="0 0 500 500">
            <circle fill="var(--accent-color)" cx="250" cy="250" r="225"/>
            <path fill="#fff"
                  d="M341.499 241.407a10 10 0 0 1 0 17.186l-136.77 81.41a10 10 0 0 1-15.114-8.592V168.589a10.001 10.001 0 0 1 15.115-8.592l136.769 81.41Z"/>
        </symbol>
        <symbol id="start" viewBox="0 0 12 14">
            <path d="M11.1424 5.4403L2.57219 0.243917C1.42874 -0.449161 0 0.417252 0 1.80367V12.1964C0 13.5821 1.42924 14.4493 2.57269 13.7562L11.1424 8.5598C12.2859 7.86673 12.2859 6.13338 11.1424 5.4403Z"/>
        </symbol>
        <symbol id="progress" viewBox="0 0 16 15">
            <path d="M5.16124 14.2038C5.16124 14.6417 4.82944 15 4.42391 15H1.37628C0.970745 15 0.638946 14.6417 0.638946 14.2038V10.5944C0.638946 10.1565 0.970745 9.79823 1.37628 9.79823H4.42391C4.82944 9.79823 5.16124 10.1565 5.16124 10.5944V14.2038ZM10.5806 14.2038C10.5806 14.6417 10.2488 15 9.84329 15H6.79566C6.39013 15 6.05833 14.6417 6.05833 14.2038V8.68356C6.05833 8.24565 6.39013 7.88737 6.79566 7.88737H9.84329C10.2488 7.88737 10.5806 8.24565 10.5806 8.68356V14.2038ZM16 14.2038C16 14.6417 15.6682 15 15.2627 15H12.215C11.8095 15 11.4777 14.6417 11.4777 14.2038V6.56039C11.4777 6.12248 11.8095 5.76419 12.215 5.76419H15.2627C15.6682 5.76419 16 6.12248 16 6.56039V14.2038ZM15.3622 0.0148521L12.0503 0.884929C11.7875 0.953613 11.729 1.17872 11.9202 1.38515L12.6269 2.13044C12.6862 2.20347 12.6158 2.30061 12.56 2.34174C12.115 2.66977 11.4087 3.1511 10.4326 3.70105C5.11813 6.6951 0.737257 6.51145 0.671389 6.50821C0.319731 6.48894 0.0190476 6.78146 0.00086008 7.16183C-0.0172783 7.54241 0.253666 7.86688 0.60611 7.88647C0.632015 7.8879 0.737355 7.89305 0.914462 7.89305C2.0503 7.89305 6.13039 7.68142 11.0238 4.92464C12.1816 4.27235 12.9841 3.70976 13.4527 3.3536C13.519 3.30322 13.6344 3.21639 13.741 3.33353L14.514 4.16815C14.7052 4.37458 14.9126 4.31104 14.9751 4.02701L15.7265 0.406418C15.7889 0.122338 15.6249 -0.0538325 15.3622 0.0148521Z"/>
        </symbol>
        <symbol id="status" viewBox="0 0 16 17">
            <path d="M14.8863 9.62108C14.4199 9.62108 14.0076 9.92161 13.8638 10.3653C13.0863 12.7672 10.8318 14.5099 8.17418 14.5099C4.87476 14.5099 2.19036 11.8252 2.19036 8.52556C2.19036 5.87883 3.91865 3.63158 6.30578 2.84523C6.76671 2.69336 7.079 2.2624 7.079 1.77655C7.079 1.6069 7.03889 1.43965 6.96194 1.28845C6.885 1.13725 6.7734 1.00638 6.63625 0.906527C6.49916 0.806669 6.34042 0.740622 6.17296 0.71377C6.00549 0.686918 5.83406 0.700022 5.67262 0.752014C2.38556 1.81062 0 4.89155 0 8.52567C0 13.0333 3.66679 16.7003 8.17415 16.7003C11.7937 16.7003 14.8643 14.3335 15.9344 11.0673C15.9886 10.9017 16.0028 10.7256 15.9759 10.5535C15.9489 10.3813 15.8815 10.218 15.7792 10.077C15.6771 9.93577 15.5428 9.82083 15.3876 9.74158C15.2324 9.66233 15.0606 9.62104 14.8863 9.62108ZM10.0126 2.83575C11.8296 3.42398 13.2675 4.85866 13.86 6.67379C13.9319 6.89398 14.0716 7.08579 14.2591 7.22176C14.4466 7.35773 14.6723 7.43089 14.9039 7.43077H14.9264C15.0956 7.43077 15.2624 7.39078 15.4133 7.31407C15.5641 7.23736 15.6947 7.12609 15.7943 6.98935C15.8939 6.85252 15.9597 6.69413 15.9865 6.52706C16.0132 6.35999 16.0002 6.18896 15.9484 6.02789C15.1468 3.53545 13.1795 1.56408 10.6892 0.756656C10.5263 0.703958 10.3533 0.690486 10.1843 0.717338C10.0153 0.744189 9.85496 0.810604 9.71647 0.911169C9.57803 1.01186 9.46536 1.14387 9.38766 1.29641C9.30997 1.44896 9.26945 1.61771 9.26942 1.7889V1.81273C9.2693 2.27852 9.56978 2.69215 10.0126 2.83575Z"/>
        </symbol>
        <symbol id="reset" viewBox="0 0 12 14">
            <path d="M6.71788 1.03314C6.45846 0.788952 6.0414 0.788952 5.78198 1.03314L3.41519 3.26098C3.15061 3.51002 3.15061 3.91779 3.41519 4.16683L5.78198 6.39467C6.0414 6.63886 6.45846 6.63886 6.71788 6.39467C6.98246 6.14562 6.98246 5.73786 6.71788 5.48881L5.40617 4.25411C5.63161 4.24449 5.90931 4.23867 6.24996 4.23867C7.05633 4.23867 7.84391 4.46378 8.51305 4.88464C9.18211 5.30544 9.70214 5.90262 10.0088 6.59958C10.3155 7.29641 10.3955 8.06259 10.2394 8.80168C10.0832 9.54084 9.69734 10.2211 9.12915 10.756C8.56087 11.2909 7.83576 11.6561 7.04509 11.8041C6.2544 11.9522 5.43491 11.8761 4.69061 11.5859C3.94635 11.2958 3.31167 10.8049 2.86582 10.1768C2.42006 9.54886 2.18278 8.81161 2.18278 8.05826C2.18278 7.69855 1.87575 7.42219 1.51639 7.42219C1.15703 7.42219 0.85 7.69855 0.85 8.05826C0.85 9.0674 1.16796 10.0531 1.76246 10.8906C2.35688 11.7279 3.20076 12.3793 4.1864 12.7636C5.17199 13.1479 6.25603 13.2483 7.30179 13.0525C8.34757 12.8567 9.30934 12.3732 10.0651 11.6618C10.8209 10.9504 11.3367 10.0428 11.5458 9.05336C11.7549 8.06381 11.6475 7.03823 11.2376 6.10672C10.8277 5.17535 10.1344 4.38077 9.24655 3.82238C8.35882 3.26405 7.31603 2.96652 6.24996 2.96652C6.01631 2.96652 5.80656 2.96913 5.61832 2.97401L6.71788 1.939C6.98246 1.68995 6.98246 1.28219 6.71788 1.03314Z"
                  stroke-width="0.3" stroke-linecap="round" stroke-linejoin="round"/>
        </symbol>
        <symbol id="pause" viewBox="0 0 10 14">
            <path d="M0 1.75C0 0.783502 0.746192 0 1.66667 0C2.58714 0 3.33333 0.783502 3.33333 1.75V12.25C3.33333 13.2165 2.58714 14 1.66667 14C0.746192 14 0 13.2165 0 12.25V1.75Z"/>
            <path d="M6.66667 1.75C6.66667 0.783502 7.41286 0 8.33333 0C9.25381 0 10 0.783502 10 1.75V12.25C10 13.2165 9.25381 14 8.33333 14C7.41286 14 6.66667 13.2165 6.66667 12.25V1.75Z"/>
        </symbol>
        <symbol id="link" viewBox="0 0 10 11">
            <path d="M5.38248 7.41256L3.85244 8.94264L3.8524 8.94268L3.85237 8.94271C3.21965 9.57547 2.19007 9.5755 1.55728 8.94271C1.25073 8.63616 1.08194 8.22859 1.08194 7.79513C1.08194 7.36171 1.25073 6.95421 1.55717 6.64766L1.55728 6.64755L3.08732 5.11747C3.29856 4.9062 3.29855 4.56366 3.08729 4.35243C2.87606 4.14119 2.53351 4.14119 2.32225 4.35243L0.792198 5.88251L0.791874 5.88287C0.281233 6.39369 0 7.07283 0 7.79513C0 8.51762 0.281341 9.19686 0.792235 9.70775C1.31957 10.2351 2.0122 10.4987 2.70486 10.4987C3.39752 10.4987 4.09018 10.2351 4.61744 9.70775L4.61748 9.70768L6.14753 8.1776C6.35876 7.96637 6.35876 7.62382 6.14749 7.41256C5.9363 7.20133 5.59379 7.20133 5.38248 7.41256ZM10 3.20484C10 2.48236 9.71862 1.80312 9.20773 1.29222C8.15309 0.237617 6.43709 0.237653 5.38252 1.29222L5.38238 1.2924L3.85237 2.82238C3.6411 3.03361 3.6411 3.37619 3.85237 3.58742C3.90254 3.63774 3.96217 3.67764 4.02782 3.70483C4.09347 3.73203 4.16385 3.74598 4.2349 3.74589C4.37332 3.74589 4.51181 3.69305 4.61741 3.58742L6.14742 2.05744L6.1476 2.05726C6.78032 1.42454 7.8099 1.42451 8.44269 2.05726C8.7492 2.36381 8.91806 2.77138 8.91806 3.20484C8.91806 3.63827 8.74927 4.04577 8.4428 4.35232L8.44269 4.35243L6.91264 5.88251C6.70141 6.09374 6.70141 6.43628 6.91268 6.64755C6.96285 6.69786 7.02247 6.73776 7.08812 6.76495C7.15376 6.79215 7.22413 6.8061 7.29518 6.80602C7.43363 6.80602 7.57208 6.75318 7.67772 6.64755L9.20777 5.11747L9.20809 5.11711C9.71873 4.60629 10 3.92715 10 3.20484Z"/>
            <path d="M3.08741 7.41253C3.13758 7.46284 3.1972 7.50273 3.26284 7.52993C3.32849 7.55712 3.39886 7.57108 3.46991 7.571C3.60836 7.571 3.74681 7.51816 3.85245 7.41253L6.91261 4.35236C7.12388 4.14113 7.12388 3.79858 6.91261 3.58732C6.70138 3.37609 6.35884 3.37609 6.14757 3.58732L3.08741 6.64745C2.87614 6.85875 2.87614 7.2013 3.08741 7.41253Z"/>
        </symbol>
        <symbol id="target" viewBox="0 0 14 15">
            <mask id="mask0_2346_85169" style="mask-type:luminance" maskUnits="userSpaceOnUse" x="0" y="0" width="14"
                  height="15" fill="transparent">
                <path d="M13.65 14.15V0.85H0.35V14.15H13.65Z" fill="white" stroke="white" stroke-width="0.7"/>
            </mask>
            <g mask="url(#mask0_2346_85169)">
                <path d="M7 11.7656C4.64792 11.7656 2.73438 9.85208 2.73438 7.5C2.73438 5.14792 4.64792 3.23438 7 3.23438C9.35208 3.23438 11.2656 5.14792 11.2656 7.5C11.2656 9.85208 9.35208 11.7656 7 11.7656Z"
                      stroke="var(--accent-color)" stroke-width="0.7" stroke-miterlimit="10" stroke-linecap="round"
                      stroke-linejoin="round" fill="transparent"/>
                <path d="M7 9.30469C6.00488 9.30469 5.19531 8.49512 5.19531 7.5C5.19531 6.50488 6.00488 5.69531 7 5.69531C7.99512 5.69531 8.80469 6.50488 8.80469 7.5C8.80469 8.49512 7.99512 9.30469 7 9.30469Z"
                      stroke="var(--accent-color)" stroke-width="0.7" stroke-miterlimit="10" stroke-linecap="round"
                      stroke-linejoin="round" fill="transparent"/>
                <path d="M7 7.5L10.0163 4.48374" stroke="var(--accent-color)" stroke-width="0.7" stroke-miterlimit="10"
                      stroke-linecap="round" stroke-linejoin="round" fill="transparent"/>
                <path d="M13.3611 2.87901L11.621 4.61914L10.0162 4.48379L9.88086 2.87901L11.621 1.13886L11.7563 2.74366L13.3611 2.87901Z"
                      stroke="var(--accent-color)" stroke-width="0.7" stroke-miterlimit="10" stroke-linecap="round"
                      stroke-linejoin="round" fill="transparent"/>
                <path d="M12.4481 3.79205L11.621 4.61909L10.0162 4.48377L9.88091 2.87896L10.7079 2.0519C9.65158 1.33155 8.37506 0.910158 7 0.910158C3.36052 0.910158 0.410156 3.86055 0.410156 7.5C0.410156 11.1395 3.36052 14.0898 7 14.0898C10.6395 14.0898 13.5898 11.1395 13.5898 7.5C13.5898 6.12494 13.1684 4.84842 12.4481 3.79205Z"
                      stroke="var(--accent-color)" stroke-width="0.7" stroke-miterlimit="10" stroke-linecap="round"
                      stroke-linejoin="round" fill="transparent"/>
            </g>
        </symbol>
        <symbol id="targetBold" viewBox="0 0 14 14">
            <path d="M7.00164 6.94068e-05C5.14513 0.00100391 3.36491 0.738724 2.05208 2.05116C0.739243 3.3636 0.00116856 5.14341 0 6.99959C0.000934876 8.85593 0.738906 10.636 2.05177 11.9486C3.36463 13.2612 5.14498 13.9991 7.00164 14C8.18232 13.9988 9.34353 13.6992 10.3774 13.1291C11.4113 12.559 12.2842 11.7368 12.9152 10.7391C13.5462 9.74131 13.9147 8.60028 13.9865 7.42199C14.0583 6.2437 13.831 5.06639 13.3259 3.99942L12.6317 4.69346C12.5667 4.759 12.4893 4.81104 12.4041 4.84661C12.3189 4.88217 12.2275 4.90056 12.1351 4.90071H11.9411C12.2172 5.54536 12.3697 6.25528 12.3697 6.99959C12.3688 8.42276 11.8029 9.78738 10.7964 10.7937C9.78992 11.8 8.42507 12.3658 7.00164 12.3667C4.03975 12.3667 1.63354 9.96097 1.63354 6.99959C1.63455 6.11314 1.85501 5.24072 2.27524 4.46016C2.69547 3.67961 3.30241 3.01519 4.04191 2.52617C4.78141 2.03716 5.63047 1.73876 6.51336 1.6576C7.39624 1.57644 8.28549 1.71504 9.10178 2.06104V1.86702C9.10178 1.68094 9.17587 1.50192 9.30818 1.37052L10.0032 0.675594C9.06547 0.229931 8.03995 -0.00144908 7.00164 6.94068e-05ZM11.4295 6.94068e-05C11.3697 0.0018479 11.3129 0.0264654 11.2707 0.0688565L9.63718 1.70123C9.61535 1.72296 9.59803 1.7488 9.58623 1.77726C9.57442 1.80571 9.56835 1.83622 9.56838 1.86702V3.40415L6.48653 6.48546C6.35079 6.62251 6.27465 6.8076 6.27465 7.00048C6.27465 7.19336 6.35079 7.37844 6.48653 7.5155C6.76878 7.7977 7.23362 7.79682 7.51587 7.51373L10.5968 4.43331H12.1351C12.1659 4.43333 12.1964 4.42727 12.2249 4.41547C12.2534 4.40366 12.2792 4.38635 12.3009 4.36452L13.9336 2.73127C13.9656 2.6985 13.9872 2.65708 13.9958 2.61213C14.0044 2.56718 13.9997 2.52069 13.9821 2.47843C13.9645 2.43616 13.9349 2.39999 13.897 2.37439C13.8591 2.34879 13.8144 2.33489 13.7687 2.33442H12.697L12.8831 2.14746C13.0187 2.01082 13.095 1.8262 13.0953 1.63368C13.0957 1.44116 13.02 1.25628 12.8849 1.11918C12.7437 0.97808 12.5559 0.907529 12.3689 0.907529C12.1819 0.907529 11.9949 0.97808 11.8538 1.11918L11.6685 1.30438V0.232005C11.6684 0.200939 11.6621 0.170207 11.65 0.141605C11.6379 0.113004 11.6201 0.0871066 11.5979 0.0654288C11.5756 0.043751 11.5493 0.0267275 11.5204 0.0153536C11.4914 0.0039798 11.4606 -0.00063417 11.4295 6.94068e-05ZM7.00164 3.26569C4.94208 3.26569 3.2662 4.94127 3.2662 6.99959C3.2662 9.05791 4.94208 10.7326 7.00164 10.7326C7.99151 10.7317 8.94055 10.3381 9.64041 9.63815C10.3403 8.93825 10.7337 7.98928 10.7344 6.99959C10.7344 6.40609 10.5915 5.84521 10.3446 5.34606L9.06562 6.62479C9.12 6.92708 9.10747 7.23761 9.02892 7.53453C8.95038 7.83146 8.80772 8.10758 8.61097 8.34346C8.41423 8.57934 8.16819 8.76925 7.89015 8.89985C7.61211 9.03044 7.30883 9.09855 7.00164 9.09936C6.44502 9.09866 5.91138 8.87734 5.5177 8.48389C5.12403 8.09045 4.90244 7.557 4.9015 7.00048C4.9022 6.44395 5.12357 5.91041 5.51708 5.5168C5.91059 5.12319 6.44414 4.90164 7.00076 4.90071C7.12954 4.90071 7.25479 4.91394 7.37651 4.93598L8.65547 3.65725C8.14199 3.40035 7.57582 3.2663 7.00164 3.26569Z"
                  />
        </symbol>

        <symbol id='plus' viewBox="0 0 12 12">
            <path d="M10.9453 4.94531H7.05469V1.05469C7.05469 0.472195 6.58249 0 6 0C5.41751 0 4.94531 0.472195 4.94531 1.05469V4.94531H1.05469C0.472195 4.94531 0 5.41751 0 6C0 6.58249 0.472195 7.05469 1.05469 7.05469H4.94531V10.9453C4.94531 11.5278 5.41751 12 6 12C6.58249 12 7.05469 11.5278 7.05469 10.9453V7.05469H10.9453C11.5278 7.05469 12 6.58249 12 6C12 5.41751 11.5278 4.94531 10.9453 4.94531Z"
                  fill="var(--accent-color)"/>
        </symbol>
        <symbol id="pencil" viewBox="0 0 16 17">
            <path d="M9.88084 3.5755L1.07744 12.3888C1.03311 12.4333 1.00152 12.4889 0.985957 12.5498L0.0101511 16.4705C-0.00420055 16.5286 -0.00332104 16.5895 0.0127047 16.6473C0.0287304 16.705 0.0593607 16.7577 0.101637 16.8001C0.166573 16.8649 0.254493 16.9013 0.346173 16.9014C0.374455 16.9014 0.402629 16.8979 0.430057 16.891L4.34663 15.914C4.40753 15.8987 4.46312 15.8671 4.50745 15.8225L13.3117 7.00985L9.88084 3.5755ZM15.4926 2.37381L14.5127 1.39286C13.8577 0.737213 12.7162 0.737863 12.062 1.39286L10.8616 2.59454L14.2922 6.02876L15.4926 4.82711C15.8198 4.49974 16 4.06398 16 3.60054C16 3.1371 15.8198 2.70134 15.4926 2.37381Z"/>
        </symbol>
        <symbol id="trashCan" viewBox="0 0 14 16">
            <path d="M12.0513 2H9.23077V1.5C9.23077 0.671562 8.54199 0 7.69231 0H5.64103C4.79135 0 4.10256 0.671562 4.10256 1.5V2H1.28205C0.574006 2 0 2.55966 0 3.25V4.25C0 4.52616 0.229583 4.75 0.51282 4.75H12.8205C13.1037 4.75 13.3333 4.52616 13.3333 4.25V3.25C13.3333 2.55966 12.7593 2 12.0513 2ZM5.1282 1.5C5.1282 1.22438 5.35833 1 5.64103 1H7.69231C7.975 1 8.20513 1.22438 8.20513 1.5V2H5.1282V1.5ZM0.973205 5.75C0.951518 5.75 0.930058 5.75429 0.910123 5.76262C0.890188 5.77094 0.872193 5.78313 0.857228 5.79843C0.842263 5.81373 0.83064 5.83184 0.823062 5.85165C0.815484 5.87146 0.812109 5.89257 0.813141 5.91369L1.23622 14.5712C1.27532 15.3725 1.95032 16 2.77276 16H10.5606C11.383 16 12.058 15.3725 12.0971 14.5712L12.5202 5.91369C12.5212 5.89257 12.5178 5.87146 12.5103 5.85165C12.5027 5.83184 12.4911 5.81373 12.4761 5.79843C12.4611 5.78313 12.4431 5.77094 12.4232 5.76262C12.4033 5.75429 12.3818 5.75 12.3601 5.75H0.973205ZM8.71795 7C8.71795 6.72375 8.94744 6.5 9.23077 6.5C9.5141 6.5 9.74359 6.72375 9.74359 7V13.5C9.74359 13.7762 9.5141 14 9.23077 14C8.94744 14 8.71795 13.7762 8.71795 13.5V7ZM6.15385 7C6.15385 6.72375 6.38333 6.5 6.66667 6.5C6.95 6.5 7.17949 6.72375 7.17949 7V13.5C7.17949 13.7762 6.95 14 6.66667 14C6.38333 14 6.15385 13.7762 6.15385 13.5V7ZM3.58974 7C3.58974 6.72375 3.81923 6.5 4.10256 6.5C4.3859 6.5 4.61538 6.72375 4.61538 7V13.5C4.61538 13.7762 4.3859 14 4.10256 14C3.81923 14 3.58974 13.7762 3.58974 13.5V7Z" />
        </symbol>
        <symbol id="radioNotChecked" viewBox="0 0 16 16">
            <circle cx="8" cy="8" r="7.5" stroke="var(--accent-color)"/>
        </symbol>
        <symbol id="radioChecked" viewBox="0 0 16 16">
            <circle cx="8" cy="8" r="7.5" stroke="var(--accent-color)"/>
            <circle cx="8" cy="8" r="5" fill="var(--accent-color)"/>
<!--            <circle cx="8" cy="8" r="7.5" stroke="currentColor"/>-->
<!--            <circle cx="8" cy="8" r="5" fill="currentColor"/>-->
        </symbol>
        <symbol id="attention" viewBox="0 0 28 28">
            <path d="M23.8995 23.8995C29.3668 18.4322 29.3668 9.56785 23.8995 4.10051C18.4322 -1.36683 9.56785 -1.36684 4.1005 4.1005C-1.36684 9.56785 -1.36683 18.4322 4.10051 23.8995C9.56785 29.3668 18.4322 29.3668 23.8995 23.8995Z"
                  fill="var(--danger)"/>
            <path fill-rule="evenodd" clip-rule="evenodd"
                  d="M14.0037 18.2241C13.6931 18.2241 13.4272 17.959 13.3733 17.5944L11.7843 6.87717C11.5846 5.52745 12.4565 4.29014 13.6073 4.29014H14.3995C15.5502 4.29014 16.4221 5.52745 16.2224 6.87717L14.6334 17.5944C14.5802 17.959 14.3144 18.2241 14.0037 18.2241ZM15.4575 22.2557C15.4575 21.4552 14.8043 20.802 14.0037 20.802C13.2032 20.802 12.55 21.4552 12.55 22.2557C12.55 23.0563 13.2032 23.7095 14.0037 23.7095C14.8043 23.7095 15.4575 23.0571 15.4575 22.2557Z"
                  fill="var(--body-color)"/>
        </symbol>
        <symbol id="attentionTriangle" viewBox="0 0 18 18">
            <path d="M17.6402 13.0338L11.334 2.3266C10.304 0.5578 7.69927 0.5578 6.67294 2.3266L0.363077 13.0338C-0.666953 14.8026 0.615027 17 2.69361 17H15.2874C17.366 17 18.6702 14.7808 17.6402 13.0338ZM8.99977 14.6247C8.45141 14.6247 7.99568 14.1779 7.99568 13.6404C7.99568 13.1028 8.45141 12.6561 8.99977 12.6561C9.54813 12.6561 10.0039 13.1028 9.98164 13.6658C10.0076 14.1779 9.5259 14.6247 8.99977 14.6247ZM9.91494 8.26134C9.87048 9.02406 9.82231 9.78316 9.77785 10.5459C9.75562 10.7929 9.75562 11.018 9.75562 11.2614C9.73339 11.6645 9.41104 11.9769 8.99977 11.9769C8.5885 11.9769 8.26986 11.6863 8.24392 11.2832C8.17723 10.0955 8.10683 8.92963 8.04014 7.74196C8.01791 7.4296 7.99568 7.11361 7.96974 6.80126C7.96974 6.28551 8.26615 5.86056 8.74782 5.72618C9.22949 5.61359 9.70745 5.83877 9.91494 6.28551C9.98534 6.44169 10.0076 6.59787 10.0076 6.77947C9.98534 7.27706 9.93717 7.77101 9.91494 8.26134Z"
                  />
        </symbol>
        <symbol id="hourglass" viewBox="0 0 18 18" fill="none">
            <path d="M15.1552 9.27176V9.5627C15.1552 12.9314 12.3938 15.6725 9 15.6725C5.60612 15.6725 2.84483 12.9314 2.84483 9.5627C2.84483 6.29132 5.44839 3.61204 8.7069 3.45962V4.57822L12.1663 2.28916L8.7069 0V1.13023C4.15518 1.28425 0.5 5.00765 0.5 9.5627C0.5 14.2148 4.3132 18 9 18C13.6867 18 17.5 14.2148 17.5 9.5627V9.27176H15.1552Z"
                  fill="var(--accent-color)"/>
            <path d="M8.24933 10.603C7.63736 10.8903 7.24138 11.5096 7.24138 12.1812V12.7631H10.7586V12.1812C10.7586 11.5096 10.3626 10.8903 9.75064 10.603C9.47241 10.4731 9.2931 10.1955 9.2931 9.89612C9.2931 9.59667 9.47241 9.3198 9.75064 9.18938C10.3626 8.90197 10.7586 8.28288 10.7586 7.61165V6.94423H7.24138V7.61165C7.24138 8.28288 7.63736 8.90226 8.24966 9.18964C8.52711 9.3198 8.7069 9.59696 8.7069 9.89641C8.7069 10.1957 8.52741 10.4731 8.24933 10.603V10.603ZM6.65517 13.3449H11.3451V13.9268H6.65517V13.3449ZM6.65517 5.78046H11.3451V6.36234H6.65517V5.78046ZM14.8689 7.70042L15.4351 7.54986L15.5868 8.11185L15.0206 8.26241L14.8689 7.70042ZM14.1844 6.25622L14.692 5.96528L14.9851 6.46934L14.4773 6.76013L14.1844 6.25622ZM13.1451 5.03649L13.5596 4.6251L13.974 5.03649L13.5596 5.44791L13.1451 5.03649ZM11.8236 4.12548L12.1165 3.62157L12.6243 3.91236L12.3312 4.41642L11.8236 4.12548ZM16.7043 7.74461L17.2789 7.63125L17.3931 8.20164L16.8185 8.315L16.7043 7.74461ZM16.1988 6.28848L16.7406 6.06573L16.9649 6.60328L16.423 6.82603L16.1988 6.28848ZM15.4171 4.95724L15.9043 4.6339L16.2301 5.11733L15.7428 5.44079L15.4171 4.95724ZM14.3885 3.80242L14.8029 3.39085L15.2174 3.80242L14.8029 4.21381L14.3885 3.80242ZM13.1527 2.86934L13.4785 2.38565L13.9656 2.70896L13.6399 3.19268L13.1527 2.86934Z"
                  fill="var(--accent-color)"/>
        </symbol>

        <symbol id="close" viewBox="0 0 28 28">
            <rect width="28" height="28" rx="14"/>
            <path d="M8 8L20 19.52M19.52 8L8 20" stroke="white" stroke-width="2" stroke-linecap="round" stroke-linejoin="round"/>
        </symbol>
        <symbol id="pen" viewBox="0 0 18 19">
            <path d="M13.4306 4.79706L13.9625 4.13561C14.6913 3.2315 14.5435 1.91057 13.6315 1.1865L13.5981 1.1591C12.688 0.435029 11.3584 0.5818 10.6296 1.48787L10.0998 2.14736L13.4306 4.79706Z"
                  />
            <path d="M10.1943 10.3567C10.212 10.5172 10.2928 10.6699 10.4287 10.7794C10.7025 10.9967 11.1024 10.9536 11.321 10.6816L14.9749 6.14148C15.1975 5.86555 15.1482 5.46046 14.8626 5.2452C14.5869 5.03776 14.1909 5.09647 13.9743 5.36457L13.6177 5.80684L13.0071 5.32152L13.0091 5.31956L9.68019 2.6679L1.16294 13.2452L4.49381 15.8949L12.2172 6.30586L12.8279 6.79119L10.3302 9.89294C10.2199 10.028 10.1766 10.1963 10.1943 10.3567ZM3.94031 16.3841L0.802478 13.8871C0.751265 14.0612 0.725658 14.2139 0.725658 14.2139L0.00669497 17.6346C-0.0445188 17.8812 0.207611 18.0827 0.438073 17.9771L3.6409 16.5289C3.63893 16.5289 3.78076 16.4702 3.94031 16.3841ZM17.5435 16.9967C17.5159 16.9967 17.4903 16.9986 17.4627 17.0025L12.623 17.6248C12.3748 17.6562 12.2015 17.3861 12.3354 17.1747C12.4083 17.0632 12.4792 16.9497 12.5501 16.8362C12.7373 16.5348 12.4871 16.1336 12.1404 16.1336C12.1168 16.1336 12.0931 16.1356 12.0675 16.1395L2.8983 17.5094C2.6639 17.5446 2.50632 17.7423 2.52602 17.9791C2.5339 18.0847 2.57723 18.1845 2.64617 18.2589C2.72693 18.347 2.83921 18.3959 2.96134 18.3959C2.98497 18.3959 3.00861 18.3939 3.03422 18.39L10.5942 17.2609C10.8522 17.2217 11.0295 17.5114 10.8778 17.7227C10.8286 17.7892 10.7793 17.8577 10.7301 17.9243C10.5942 18.1082 10.6257 18.4155 10.7833 18.574C10.864 18.6562 10.9664 18.6992 11.0748 18.6992C11.0866 18.6992 11.1004 18.6992 11.1122 18.6972H11.1162L17.642 17.8714H17.6459C17.7582 17.8538 17.8567 17.7892 17.9217 17.6894C17.9926 17.5798 18.0182 17.4448 17.9867 17.3235C17.9355 17.1258 17.7621 16.9967 17.5435 16.9967Z"
                  />
        </symbol>
        <symbol id="lock" viewBox="0 0 24 24">
            <circle fill="var(--accent-color)" cx="50%" cy="50%" r="50%"/>
            <!-- Lock body -->
            <rect x="7.5" y="11" width="9.33" height="6.67" rx="1.33" fill="white"/>
            <!-- Lock shackle -->
            <path d="M9.5 11V8.33a2.67 2.67 0 0 1 5.33 0V11"
                  fill="none"
                  stroke="white"
                  stroke-width="1.33"
                  stroke-linecap="round"/>
            <!-- Keyhole -->
            <circle cx="12.17" cy="14.33" r="1" fill="var(--accent-color)"/>

        </symbol>

    </defs>
</svg>
